<svg width="441" height="340" viewBox="0 0 441 340" fill="none" xmlns="http://www.w3.org/2000/svg">
<g clip-path="url(#clip0_4740_37551)">
<path d="M319.402 221.253L262.433 191.881C261.574 191.437 260.926 190.67 260.632 189.749C260.337 188.828 260.42 187.828 260.863 186.968L264.387 180.133C264.831 179.274 265.597 178.626 266.518 178.332C267.44 178.037 268.44 178.12 269.3 178.562L326.269 207.934C327.128 208.378 327.776 209.145 328.07 210.066C328.365 210.987 328.282 211.987 327.84 212.847L324.316 219.682C324.097 220.109 323.796 220.487 323.43 220.797C323.064 221.106 322.641 221.339 322.184 221.484C321.823 221.6 321.446 221.659 321.067 221.659C320.487 221.659 319.917 221.519 319.402 221.253Z" fill="#6C63FF"/>
<path d="M302.034 193.777C302.484 193.602 302.964 193.518 303.447 193.531C303.929 193.543 304.404 193.652 304.845 193.85L323.514 204.173C325.557 205.302 327.089 207.172 327.792 209.398C328.495 211.624 328.317 214.034 327.293 216.132C326.316 218.137 324.637 219.713 322.574 220.562C320.512 221.412 318.209 221.475 316.103 220.739L295.856 213.663C295.418 213.469 295.022 213.191 294.691 212.844C294.36 212.498 294.101 212.089 293.928 211.642C293.755 211.195 293.672 210.718 293.683 210.239C293.695 209.76 293.8 209.288 293.994 208.85L300.014 195.704C300.119 195.466 300.249 195.239 300.402 195.029C300.813 194.463 301.38 194.028 302.034 193.777Z" fill="#2F2E41"/>
<path d="M344.99 190.623C360.391 190.623 372.876 178.138 372.876 162.737C372.876 147.336 360.391 134.852 344.99 134.852C329.589 134.852 317.104 147.336 317.104 162.737C317.104 178.138 329.589 190.623 344.99 190.623Z" fill="#6C63FF"/>
<path d="M341.568 336.165V272.069C341.569 271.102 341.954 270.175 342.638 269.491C343.322 268.808 344.249 268.423 345.216 268.422H352.906C353.873 268.423 354.8 268.808 355.484 269.491C356.167 270.175 356.552 271.102 356.553 272.069V336.165C356.552 337.132 356.167 338.059 355.484 338.742C354.8 339.426 353.873 339.811 352.906 339.812H345.216C344.249 339.811 343.322 339.426 342.638 338.742C341.954 338.059 341.569 337.132 341.568 336.165Z" fill="#6C63FF"/>
<path d="M324.895 336.165V272.069C324.896 271.102 325.281 270.175 325.964 269.491C326.648 268.808 327.575 268.423 328.542 268.422H336.233C337.2 268.423 338.127 268.808 338.81 269.491C339.494 270.175 339.879 271.102 339.88 272.069V336.165C339.879 337.132 339.494 338.059 338.81 338.742C338.127 339.426 337.2 339.811 336.233 339.812H328.542C327.575 339.811 326.648 339.426 325.964 338.742C325.281 338.059 324.896 337.132 324.895 336.165Z" fill="#6C63FF"/>
<path d="M345.576 173.073L345.605 172.031C343.666 171.977 341.957 171.855 340.673 170.917C340.309 170.636 340.01 170.28 339.795 169.872C339.581 169.465 339.457 169.017 339.432 168.558C339.41 168.277 339.452 167.995 339.556 167.733C339.66 167.472 339.823 167.238 340.033 167.049C340.885 166.329 342.257 166.562 343.257 167.021L344.119 167.416L342.466 155.333L341.433 155.474L342.84 165.753C341.481 165.353 340.222 165.525 339.36 166.254C339.029 166.543 338.769 166.904 338.601 167.31C338.433 167.716 338.361 168.156 338.391 168.594C338.421 169.211 338.586 169.814 338.874 170.361C339.162 170.908 339.566 171.385 340.058 171.759C341.708 172.965 343.853 173.025 345.576 173.073Z" fill="#2F2E41"/>
<path d="M336.328 156.36H330.715V157.402H336.328V156.36Z" fill="#2F2E41"/>
<path d="M354.043 156.36H348.431V157.402H354.043V156.36Z" fill="#2F2E41"/>
<path d="M371.675 282.674L362.03 219.309C361.886 218.353 362.127 217.378 362.7 216.599C363.273 215.821 364.131 215.301 365.087 215.154L372.69 213.997C373.646 213.853 374.62 214.093 375.399 214.667C376.178 215.24 376.698 216.098 376.844 217.054L386.489 280.42C386.634 281.376 386.393 282.35 385.82 283.129C385.247 283.908 384.388 284.428 383.432 284.574L375.83 285.731C375.356 285.804 374.873 285.782 374.408 285.668C373.942 285.553 373.504 285.348 373.119 285.064C372.733 284.78 372.407 284.423 372.159 284.013C371.911 283.603 371.747 283.148 371.675 282.674Z" fill="#6C63FF"/>
<path d="M364.222 242.003C363.815 241.742 363.465 241.403 363.192 241.005C362.919 240.607 362.727 240.159 362.63 239.686L360.014 218.513C359.727 216.197 360.341 213.859 361.729 211.982C363.117 210.105 365.172 208.833 367.471 208.429C369.668 208.043 371.93 208.475 373.829 209.645C375.728 210.815 377.131 212.641 377.774 214.777L383.943 235.319C384.044 235.788 384.051 236.272 383.965 236.743C383.879 237.215 383.701 237.664 383.441 238.067C383.181 238.47 382.844 238.817 382.449 239.089C382.055 239.361 381.611 239.553 381.142 239.654L366.967 242.506C366.713 242.561 366.454 242.589 366.194 242.589C365.494 242.588 364.809 242.385 364.222 242.003Z" fill="#2F2E41"/>
<path d="M364.97 287.804H290.449C289.693 287.804 288.95 287.611 288.29 287.242C287.63 286.874 287.075 286.343 286.679 285.699C286.282 285.056 286.057 284.322 286.024 283.567C285.991 282.812 286.153 282.061 286.492 281.386L322.522 209.736C325.025 204.758 329.135 200.769 334.186 198.416C339.237 196.063 344.935 195.483 350.356 196.769C355.778 198.056 360.608 201.134 364.063 205.505C367.519 209.877 369.399 215.286 369.399 220.859V283.375C369.397 284.55 368.93 285.675 368.1 286.506C367.27 287.336 366.144 287.803 364.97 287.804Z" fill="#2F2E41"/>
<path d="M345.978 139.731C340.27 141.006 335.455 144.726 329.715 145.883C327.1 146.41 324.219 146.389 321.817 145.101C320.038 144.135 318.678 142.547 317.995 140.641C317.321 138.692 317.147 136.604 317.49 134.57C317.833 132.536 318.682 130.621 319.958 129.001C323.18 125.056 328.317 123.239 333.246 122.727C343.109 121.702 353.241 124.952 361.269 130.614C369.558 136.46 375.918 145.238 378.051 155.229C379.191 160.569 379.078 166.25 377.132 171.393C375.259 176.314 371.573 180.331 366.831 182.619C365.699 183.165 364.519 183.604 363.306 183.931C363.112 183.992 362.95 184.125 362.853 184.303C362.756 184.481 362.732 184.69 362.786 184.886C362.84 185.081 362.967 185.248 363.142 185.351C363.316 185.454 363.524 185.486 363.721 185.439C369.054 183.982 373.653 180.595 376.626 175.935C379.68 171.051 380.705 165.07 380.234 159.387C379.324 148.394 373.279 138.289 364.828 131.372C356.709 124.726 346.206 120.683 335.645 121.004C330.349 121.165 324.852 122.51 320.734 126C318.959 127.5 317.585 129.419 316.735 131.582C315.886 133.746 315.587 136.086 315.866 138.394C316.103 140.552 316.96 142.596 318.334 144.278C320.013 146.176 322.341 147.378 324.861 147.649C331.106 148.462 336.52 144.923 342.038 142.648C343.447 142.054 344.904 141.583 346.394 141.238C347.375 141.019 346.96 139.512 345.978 139.731Z" fill="#2F2E41"/>
<path d="M361.662 128.683C359.42 120.291 365.271 111.556 373.221 108.935C377.783 107.515 382.677 107.569 387.206 109.091C391.621 110.585 395.586 113.174 398.73 116.615C405.699 124.029 408.786 134.035 410.231 143.9C411.722 154.086 410.88 165.242 416.092 174.498C418.253 178.336 421.461 181.696 425.605 183.349C429.471 184.89 434.103 184.898 437.807 182.894C438.699 182.406 439.523 181.804 440.259 181.103C440.992 180.411 439.885 179.307 439.154 179.998C436.052 182.925 431.429 183.477 427.443 182.328C423.094 181.075 419.747 177.733 417.542 173.885C414.992 169.435 413.929 164.349 413.35 159.302C412.718 153.793 412.474 148.254 411.63 142.767C410.107 132.87 406.817 122.937 399.836 115.51C396.643 112.042 392.662 109.393 388.23 107.788C383.666 106.154 378.722 105.904 374.017 107.07C369.74 108.178 365.971 110.713 363.332 114.255C360.768 117.618 359.463 121.773 359.647 125.997C359.714 127.046 359.884 128.084 360.155 129.099C360.216 129.293 360.349 129.455 360.527 129.552C360.705 129.649 360.914 129.673 361.109 129.619C361.305 129.565 361.472 129.438 361.575 129.263C361.678 129.089 361.709 128.881 361.662 128.683Z" fill="#2F2E41"/>
<path d="M54.8238 199.748H9.35773C7.00933 199.745 4.75786 198.811 3.09729 197.151C1.43671 195.49 0.502644 193.239 0.5 190.89V9.04622C0.502644 6.69781 1.43671 4.44634 3.09729 2.78577C4.75786 1.1252 7.00933 0.19112 9.35773 0.188477H132.679L155.25 20.3415V56.9822H154.208V20.8081L132.281 1.23056H9.35773C7.28562 1.23291 5.29903 2.05709 3.83382 3.5223C2.36861 4.98751 1.54443 6.9741 1.54209 9.04622V190.89C1.54443 192.962 2.36861 194.949 3.83382 196.414C5.29903 197.879 7.28562 198.704 9.35773 198.706H54.8238V199.748Z" fill="#CCCCCC"/>
<path d="M154.729 21.0302H140.66C138.312 21.0276 136.061 20.0935 134.4 18.4329C132.739 16.7723 131.805 14.5209 131.803 12.1725V0.70952C131.803 0.571331 131.858 0.438801 131.955 0.341086C132.053 0.243372 132.186 0.188477 132.324 0.188477C132.462 0.188477 132.594 0.243372 132.692 0.341086C132.79 0.438801 132.845 0.571331 132.845 0.70952V12.1725C132.847 14.2446 133.671 16.2312 135.137 17.6964C136.602 19.1616 138.588 19.9858 140.66 19.9881H154.729C154.867 19.9881 154.999 20.043 155.097 20.1407C155.195 20.2384 155.25 20.371 155.25 20.5092C155.25 20.6474 155.195 20.7799 155.097 20.8776C154.999 20.9753 154.867 21.0302 154.729 21.0302Z" fill="#CCCCCC"/>
<path d="M137.295 47.3428H18.497C17.3914 47.3428 16.3312 47.7819 15.5495 48.5637C14.7678 49.3454 14.3286 50.4056 14.3286 51.5111C14.3286 52.6166 14.7678 53.6769 15.5495 54.4586C16.3312 55.2403 17.3914 55.6795 18.497 55.6795H137.295C138.4 55.6795 139.461 55.2403 140.242 54.4586C141.024 53.6769 141.463 52.6166 141.463 51.5111C141.463 50.4056 141.024 49.3454 140.242 48.5637C139.461 47.7819 138.4 47.3428 137.295 47.3428Z" fill="#E6E6E6"/>
<path d="M77.3748 29.627H18.497C17.3914 29.627 16.3312 30.0661 15.5495 30.8478C14.7678 31.6295 14.3286 32.6898 14.3286 33.7953C14.3286 34.9008 14.7678 35.961 15.5495 36.7428C16.3312 37.5245 17.3914 37.9636 18.497 37.9636H77.3748C78.4804 37.9636 79.5406 37.5245 80.3223 36.7428C81.104 35.961 81.5432 34.9008 81.5432 33.7953C81.5432 32.6898 81.104 31.6295 80.3223 30.8478C79.5406 30.0661 78.4804 29.627 77.3748 29.627Z" fill="#E6E6E6"/>
<path d="M18.497 82.2529C17.3914 82.2529 16.3312 82.6921 15.5495 83.4738C14.7678 84.2555 14.3286 85.3158 14.3286 86.4213C14.3286 87.5268 14.7678 88.587 15.5495 89.3687C16.3312 90.1505 17.3914 90.5896 18.497 90.5896H55.7307V82.2529H18.497Z" fill="#E6E6E6"/>
<path d="M18.497 64.5371C17.9496 64.5371 17.4075 64.6449 16.9018 64.8544C16.3961 65.0639 15.9366 65.3709 15.5495 65.758C15.1624 66.1451 14.8554 66.6046 14.6459 67.1103C14.4364 67.616 14.3286 68.1581 14.3286 68.7055C14.3286 69.2529 14.4364 69.7949 14.6459 70.3006C14.8554 70.8063 15.1624 71.2658 15.5495 71.6529C15.9366 72.04 16.3961 72.347 16.9018 72.5565C17.4075 72.766 17.9496 72.8738 18.497 72.8738H55.7307V64.5371H18.497Z" fill="#E6E6E6"/>
<path d="M55.9912 170.569H22.6236C20.3442 170.567 18.159 169.66 16.5473 168.049C14.9355 166.437 14.0289 164.252 14.0264 161.972V118.205C14.0289 115.925 14.9356 113.74 16.5473 112.128C18.159 110.517 20.3442 109.61 22.6236 109.607H55.9912V170.569Z" fill="#E6E6E6"/>
<path d="M109.794 255.76H64.3279C61.9795 255.757 59.7281 254.823 58.0675 253.162C56.4069 251.502 55.4729 249.25 55.4702 246.902V65.0579C55.4729 62.7095 56.4069 60.4581 58.0675 58.7975C59.7281 57.1369 61.9795 56.2028 64.3279 56.2002H187.649L210.22 76.3532V110.91H209.178V76.8198L187.251 57.2423H64.3279C62.2558 57.2446 60.2693 58.0688 58.804 59.534C57.3388 60.9992 56.5146 62.9858 56.5123 65.0579V246.902C56.5146 248.974 57.3388 250.961 58.804 252.426C60.2693 253.891 62.2558 254.715 64.3279 254.718H109.794V255.76Z" fill="#CCCCCC"/>
<path d="M209.699 77.0419H195.631C193.282 77.0393 191.031 76.1052 189.37 74.4446C187.71 72.7841 186.776 70.5326 186.773 68.1842V56.7212C186.773 56.583 186.828 56.4505 186.926 56.3528C187.023 56.2551 187.156 56.2002 187.294 56.2002C187.432 56.2002 187.565 56.2551 187.662 56.3528C187.76 56.4505 187.815 56.583 187.815 56.7212V68.1842C187.817 70.2563 188.642 72.2429 190.107 73.7081C191.572 75.1733 193.559 75.9975 195.631 75.9998H209.699C209.837 75.9998 209.97 76.0547 210.067 76.1524C210.165 76.2502 210.22 76.3827 210.22 76.5209C210.22 76.6591 210.165 76.7916 210.067 76.8893C209.97 76.987 209.837 77.0419 209.699 77.0419Z" fill="#CCCCCC"/>
<path d="M192.265 103.355H73.4667C72.3612 103.355 71.3009 103.795 70.5192 104.576C69.7375 105.358 69.2983 106.418 69.2983 107.524C69.2983 108.629 69.7375 109.69 70.5192 110.471C71.3009 111.253 72.3612 111.692 73.4667 111.692H192.265C193.37 111.692 194.43 111.253 195.212 110.471C195.994 109.69 196.433 108.629 196.433 107.524C196.433 106.418 195.994 105.358 195.212 104.576C194.43 103.795 193.37 103.355 192.265 103.355Z" fill="#E6E6E6"/>
<path d="M132.345 85.6396H73.4667C72.3612 85.6396 71.3009 86.0788 70.5192 86.8605C69.7375 87.6423 69.2983 88.7025 69.2983 89.808C69.2983 90.9135 69.7375 91.9737 70.5192 92.7555C71.3009 93.5372 72.3612 93.9763 73.4667 93.9763H132.345C133.45 93.9763 134.51 93.5372 135.292 92.7555C136.074 91.9737 136.513 90.9135 136.513 89.808C136.513 88.7025 136.074 87.6423 135.292 86.8605C134.51 86.0788 133.45 85.6396 132.345 85.6396Z" fill="#E6E6E6"/>
<path d="M192.265 103.355H73.4667C72.3612 103.355 71.3009 103.795 70.5192 104.576C69.7375 105.358 69.2983 106.418 69.2983 107.524C69.2983 108.629 69.7375 109.69 70.5192 110.471C71.3009 111.253 72.3612 111.692 73.4667 111.692H192.265C193.37 111.692 194.43 111.253 195.212 110.471C195.994 109.69 196.433 108.629 196.433 107.524C196.433 106.418 195.994 105.358 195.212 104.576C194.43 103.795 193.37 103.355 192.265 103.355Z" fill="#E6E6E6"/>
<path d="M132.345 85.6396H73.4667C72.3612 85.6396 71.3009 86.0788 70.5192 86.8605C69.7375 87.6423 69.2983 88.7025 69.2983 89.808C69.2983 90.9135 69.7375 91.9737 70.5192 92.7555C71.3009 93.5372 72.3612 93.9763 73.4667 93.9763H132.345C133.45 93.9763 134.51 93.5372 135.292 92.7555C136.074 91.9737 136.513 90.9135 136.513 89.808C136.513 88.7025 136.074 87.6423 135.292 86.8605C134.51 86.0788 133.45 85.6396 132.345 85.6396Z" fill="#E6E6E6"/>
<path d="M73.4667 138.265C72.3612 138.265 71.3009 138.704 70.5192 139.486C69.7375 140.267 69.2983 141.327 69.2983 142.433C69.2983 143.539 69.7375 144.599 70.5192 145.38C71.3009 146.162 72.3612 146.601 73.4667 146.601H110.7V138.265H73.4667Z" fill="#E6E6E6"/>
<path d="M73.4667 120.55C72.3612 120.55 71.3009 120.989 70.5192 121.771C69.7375 122.552 69.2983 123.613 69.2983 124.718C69.2983 125.824 69.7375 126.884 70.5192 127.666C71.3009 128.447 72.3612 128.886 73.4667 128.886H110.7V120.55H73.4667Z" fill="#E6E6E6"/>
<path d="M73.4667 138.265C72.3612 138.265 71.3009 138.704 70.5192 139.486C69.7375 140.267 69.2983 141.327 69.2983 142.433C69.2983 143.539 69.7375 144.599 70.5192 145.38C71.3009 146.162 72.3612 146.601 73.4667 146.601H110.7V138.265H73.4667Z" fill="#E6E6E6"/>
<path d="M73.4667 120.55C72.3612 120.55 71.3009 120.989 70.5192 121.771C69.7375 122.552 69.2983 123.613 69.2983 124.718C69.2983 125.824 69.7375 126.884 70.5192 127.666C71.3009 128.447 72.3612 128.886 73.4667 128.886H110.7V120.55H73.4667Z" fill="#E6E6E6"/>
<path d="M110.961 226.582H77.5933C75.314 226.58 73.1287 225.673 71.517 224.061C69.9053 222.45 68.9987 220.264 68.9961 217.985V174.217C68.9987 171.938 69.9053 169.753 71.517 168.141C73.1287 166.529 75.314 165.623 77.5933 165.62H110.961V226.582Z" fill="#E6E6E6"/>
<path d="M113.9 112.734C112.605 113.525 111.535 114.635 110.792 115.958C110.049 117.281 109.659 118.772 109.659 120.289V121.592H110.701V120.289C110.703 118.566 111.273 116.892 112.324 115.526C113.374 114.16 114.846 113.179 116.51 112.734H113.9ZM241.837 111.432H118.516C116.168 111.434 113.917 112.368 112.256 114.029C110.596 115.69 109.661 117.941 109.659 120.289V302.133C109.662 304.482 110.596 306.733 112.257 308.393C113.917 310.054 116.168 310.988 118.516 310.991H255.551C257.899 310.988 260.15 310.054 261.811 308.393C263.471 306.733 264.405 304.482 264.409 302.133V131.586L241.837 111.432ZM263.366 302.133C263.364 304.206 262.54 306.192 261.075 307.657C259.609 309.122 257.623 309.947 255.551 309.949H118.516C116.444 309.947 114.458 309.122 112.993 307.657C111.528 306.192 110.703 304.206 110.701 302.133L110.701 120.289C110.703 118.566 111.273 116.892 112.324 115.526C113.374 114.16 114.846 113.179 116.51 112.734C117.165 112.56 117.839 112.472 118.516 112.474H241.441L263.366 132.049V302.133ZM113.9 112.734C112.605 113.525 111.535 114.635 110.792 115.958C110.049 117.281 109.659 118.772 109.659 120.289V121.592H110.701V120.289C110.703 118.566 111.273 116.892 112.324 115.526C113.374 114.16 114.846 113.179 116.51 112.734H113.9Z" fill="#3F3D56"/>
<path d="M263.887 132.273H249.819C247.471 132.271 245.219 131.337 243.559 129.676C241.898 128.016 240.964 125.764 240.961 123.416V111.953C240.961 111.814 241.016 111.682 241.114 111.584C241.212 111.487 241.344 111.432 241.482 111.432C241.621 111.432 241.753 111.487 241.851 111.584C241.949 111.682 242.004 111.814 242.004 111.953V123.416C242.006 125.488 242.83 127.474 244.295 128.94C245.76 130.405 247.747 131.229 249.819 131.231H263.887C264.026 131.231 264.158 131.286 264.256 131.384C264.354 131.482 264.408 131.614 264.408 131.752C264.408 131.891 264.354 132.023 264.256 132.121C264.158 132.218 264.026 132.273 263.887 132.273Z" fill="#3F3D56"/>
<path d="M246.454 166.923H127.656C126.551 166.923 125.49 166.483 124.709 165.702C123.927 164.92 123.488 163.86 123.488 162.754C123.488 161.649 123.927 160.589 124.709 159.807C125.49 159.025 126.551 158.586 127.656 158.586H246.454C247.559 158.586 248.62 159.025 249.401 159.807C250.183 160.589 250.622 161.649 250.622 162.754C250.622 163.86 250.183 164.92 249.401 165.702C248.62 166.483 247.559 166.923 246.454 166.923Z" fill="#CCCCCC"/>
<path d="M186.534 149.207H127.656C126.551 149.207 125.49 148.768 124.709 147.986C123.927 147.204 123.488 146.144 123.488 145.038C123.488 143.933 123.927 142.873 124.709 142.091C125.49 141.309 126.551 140.87 127.656 140.87H186.534C187.64 140.87 188.7 141.309 189.481 142.091C190.263 142.873 190.702 143.933 190.702 145.038C190.702 146.144 190.263 147.204 189.481 147.986C188.7 148.768 187.64 149.207 186.534 149.207Z" fill="#CCCCCC"/>
<path d="M246.454 201.832H127.656C126.551 201.832 125.49 201.393 124.709 200.611C123.927 199.829 123.488 198.769 123.488 197.663C123.488 196.558 123.927 195.498 124.709 194.716C125.49 193.934 126.551 193.495 127.656 193.495H246.454C247.559 193.495 248.62 193.934 249.401 194.716C250.183 195.498 250.622 196.558 250.622 197.663C250.622 198.769 250.183 199.829 249.401 200.611C248.62 201.393 247.559 201.832 246.454 201.832Z" fill="#CCCCCC"/>
<path d="M186.534 184.117H127.656C126.551 184.117 125.49 183.678 124.709 182.896C123.927 182.114 123.488 181.054 123.488 179.949C123.488 178.843 123.927 177.783 124.709 177.001C125.49 176.219 126.551 175.78 127.656 175.78H186.534C187.64 175.78 188.7 176.219 189.481 177.001C190.263 177.783 190.702 178.843 190.702 179.949C190.702 181.054 190.263 182.114 189.481 182.896C188.7 183.678 187.64 184.117 186.534 184.117Z" fill="#CCCCCC"/>
<path d="M242.242 281.813H131.781C129.502 281.81 127.317 280.903 125.705 279.292C124.093 277.68 123.187 275.495 123.184 273.215V229.448C123.187 227.168 124.093 224.983 125.705 223.371C127.317 221.76 129.502 220.853 131.781 220.851H242.242C244.522 220.853 246.707 221.76 248.319 223.371C249.93 224.983 250.837 227.168 250.84 229.448V273.215C250.837 275.495 249.931 277.68 248.319 279.292C246.707 280.903 244.522 281.81 242.242 281.813Z" fill="#6C63FF"/>
</g>
<defs>
<clipPath id="clip0_4740_37551">
<rect width="440" height="339.623" fill="white" transform="translate(0.5 0.188477)"/>
</clipPath>
</defs>
</svg>
