 <svg xmlns="http://www.w3.org/2000/svg" width="21" height="21" viewBox="0 0 21 21" fill="none">
            <path d="M7.65283 2.04199H11.8198C11.85 2.04199 11.8811 2.05443 11.9067 2.08008C11.9324 2.10572 11.9448 2.13684 11.9448 2.16699C11.9448 2.19714 11.9324 2.22826 11.9067 2.25391C11.8811 2.27955 11.85 2.29199 11.8198 2.29199H7.65283C5.69688 2.29203 4.22159 2.63437 3.25439 3.60156C2.2872 4.56876 1.94486 6.04405 1.94482 8V13C1.94482 14.9559 2.28739 16.4312 3.25439 17.3984C4.22159 18.3656 5.69688 18.7089 7.65283 18.709H12.6528C14.6089 18.709 16.084 18.3657 17.0513 17.3984C18.0185 16.4312 18.3618 14.9561 18.3618 13V8.83398C18.3618 8.80384 18.3743 8.77271 18.3999 8.74707C18.4255 8.72143 18.4567 8.70898 18.4868 8.70898C18.5169 8.70907 18.5482 8.72152 18.5737 8.74707C18.5992 8.77265 18.6118 8.80396 18.6118 8.83398V13C18.6118 15.2051 18.1389 16.6604 17.2261 17.5732C16.3132 18.4861 14.8579 18.959 12.6528 18.959H7.65283C5.44804 18.9589 3.99336 18.4859 3.08057 17.5732C2.16774 16.6604 1.69482 15.2051 1.69482 13V8C1.69487 5.79508 2.16778 4.34052 3.08057 3.42773C3.99335 2.51495 5.44791 2.04204 7.65283 2.04199Z" fill="#777199" stroke="#777199"/>
            <path d="M18.4865 9.45841H15.1532C12.3032 9.45841 11.1948 8.35007 11.1948 5.50007V2.16674C11.1948 1.91674 11.3448 1.68341 11.5782 1.59174C11.8115 1.49174 12.0782 1.55007 12.2615 1.72507L18.9282 8.39174C19.1032 8.56674 19.1615 8.84174 19.0615 9.07507C18.9615 9.3084 18.7365 9.45841 18.4865 9.45841ZM12.4448 3.67507V5.50007C12.4448 7.65007 13.0032 8.20841 15.1532 8.20841H16.9782L12.4448 3.67507Z" fill="#777199"/>
            <path d="M10.9866 11.958H5.98657C5.64491 11.958 5.36157 11.6747 5.36157 11.333C5.36157 10.9913 5.64491 10.708 5.98657 10.708H10.9866C11.3282 10.708 11.6116 10.9913 11.6116 11.333C11.6116 11.6747 11.3282 11.958 10.9866 11.958Z" fill="#777199"/>
            <path d="M9.31991 15.292H5.98657C5.64491 15.292 5.36157 15.0087 5.36157 14.667C5.36157 14.3253 5.64491 14.042 5.98657 14.042H9.31991C9.66157 14.042 9.94491 14.3253 9.94491 14.667C9.94491 15.0087 9.66157 15.292 9.31991 15.292Z" fill="#777199"/>
          </svg>