<svg xmlns="http://www.w3.org/2000/svg" width="21" height="21" viewBox="0 0 21 21" fill="none">
            <path d="M3.16162 9.84961V13.5913C3.16162 17.3329 4.66162 18.8329 8.40329 18.8329H12.895C16.6366 18.8329 18.1366 17.3329 18.1366 13.5913V9.84961" stroke="#777199" stroke-width="1.5" stroke-linecap="round" stroke-linejoin="round"/>
            <path d="M10.6533 10.5003C12.1783 10.5003 13.3033 9.25866 13.1533 7.73366L12.6033 2.16699H8.71164L8.15331 7.73366C8.00331 9.25866 9.12831 10.5003 10.6533 10.5003Z" stroke="#777199" stroke-width="1.5" stroke-linecap="round" stroke-linejoin="round"/>
            <path d="M15.9117 10.5003C17.5951 10.5003 18.8284 9.13366 18.6617 7.45866L18.4284 5.16699C18.1284 3.00033 17.2951 2.16699 15.1117 2.16699H12.5701L13.1534 8.00866C13.2951 9.38366 14.5367 10.5003 15.9117 10.5003Z" stroke="#777199" stroke-width="1.5" stroke-linecap="round" stroke-linejoin="round"/>
            <path d="M5.35322 10.5003C6.72822 10.5003 7.96989 9.38366 8.10322 8.00866L8.28656 6.16699L8.68656 2.16699H6.14489C3.96156 2.16699 3.12822 3.00033 2.82822 5.16699L2.60322 7.45866C2.43656 9.13366 3.66989 10.5003 5.35322 10.5003Z" stroke="#777199" stroke-width="1.5" stroke-linecap="round" stroke-linejoin="round"/>
            <path d="M10.6534 14.667C9.26174 14.667 8.57007 15.3587 8.57007 16.7503V18.8337H12.7367V16.7503C12.7367 15.3587 12.0451 14.667 10.6534 14.667Z" stroke="#777199" stroke-width="1.5" stroke-linecap="round" stroke-linejoin="round"/>
          </svg> 