  <svg xmlns="http://www.w3.org/2000/svg" width="21" height="21" viewBox="0 0 21 21" fill="none">
            <path d="M19.3199 19.458H0.986542C0.644875 19.458 0.361542 19.1747 0.361542 18.833C0.361542 18.4913 0.644875 18.208 0.986542 18.208H19.3199C19.6615 18.208 19.9449 18.4913 19.9449 18.833C19.9449 19.1747 19.6615 19.458 19.3199 19.458Z" fill="#777199"/>
            <path d="M16.6367 19.4667C16.2951 19.4667 16.0117 19.1834 16.0117 18.8417V15.125C16.0117 14.7833 16.2951 14.5 16.6367 14.5C16.9784 14.5 17.2617 14.7833 17.2617 15.125V18.8417C17.2617 19.1834 16.9867 19.4667 16.6367 19.4667Z" fill="#777199"/>
            <path d="M16.6533 15.7497C15.295 15.7497 14.1949 14.6497 14.1949 13.2914V11.3997C14.1949 10.0414 15.295 8.94141 16.6533 8.94141C18.0116 8.94141 19.1116 10.0414 19.1116 11.3997V13.2914C19.1116 14.6497 18.0116 15.7497 16.6533 15.7497ZM16.6533 10.1997C15.9866 10.1997 15.4449 10.7414 15.4449 11.4081V13.2997C15.4449 13.9664 15.9866 14.5081 16.6533 14.5081C17.32 14.5081 17.8616 13.9664 17.8616 13.2997V11.4081C17.8616 10.7414 17.32 10.1997 16.6533 10.1997Z" fill="#777199"/>
            <path d="M12.0697 19.4588C11.728 19.4588 11.4447 19.1754 11.4447 18.8338V5.52547C11.4447 4.20047 10.8864 3.63379 9.5864 3.63379H4.39475C3.08641 3.63379 2.51974 4.20047 2.51974 5.52547V18.8338C2.51974 19.1754 2.23641 19.4588 1.89474 19.4588C1.55308 19.4588 1.26974 19.1754 1.26974 18.8338V5.52547C1.26974 3.50047 2.37808 2.38379 4.39475 2.38379H9.5864C11.5947 2.38379 12.6947 3.50047 12.6947 5.52547V18.8338C12.6947 19.1754 12.4114 19.4588 12.0697 19.4588Z" fill="#777199"/>
            <path d="M9.11137 8H4.98636C4.64469 8 4.36136 7.71667 4.36136 7.375C4.36136 7.03333 4.64469 6.75 4.98636 6.75H9.11137C9.45304 6.75 9.73637 7.03333 9.73637 7.375C9.73637 7.71667 9.45304 8 9.11137 8Z" fill="#777199"/>
            <path d="M9.11137 11.125H4.98636C4.64469 11.125 4.36136 10.8417 4.36136 10.5C4.36136 10.1583 4.64469 9.875 4.98636 9.875H9.11137C9.45304 9.875 9.73637 10.1583 9.73637 10.5C9.73637 10.8417 9.45304 11.125 9.11137 11.125Z" fill="#777199"/>
            <path d="M7.0282 19.458C6.68653 19.458 6.4032 19.1747 6.4032 18.833V15.708C6.4032 15.3663 6.68653 15.083 7.0282 15.083C7.36986 15.083 7.6532 15.3663 7.6532 15.708V18.833C7.6532 19.1747 7.36986 19.458 7.0282 19.458Z" fill="#777199"/>
          </svg>