<svg width="20" height="20" viewBox="0 0 20 20" fill="none" xmlns="http://www.w3.org/2000/svg">
<path d="M16.475 10.9587H13.1083C12.3384 10.9587 11.8662 10.7798 11.5842 10.5099C11.3066 10.2442 11.125 9.80522 11.125 9.08366V3.41699C11.125 2.69676 11.308 2.25743 11.5869 1.99117C11.8704 1.72059 12.3432 1.54199 13.1083 1.54199H16.475C17.2449 1.54199 17.7171 1.72087 17.9991 1.99073C18.2768 2.25644 18.4583 2.69543 18.4583 3.41699V9.08366C18.4583 9.80389 18.2754 10.2432 17.9964 10.5095C17.713 10.7801 17.2401 10.9587 16.475 10.9587ZM13.1083 1.79199C12.5806 1.79199 12.0756 1.85093 11.7412 2.18531C11.4031 2.52345 11.375 3.00992 11.375 3.41699V9.08366C11.375 9.49073 11.4031 9.9772 11.7412 10.3153C12.0756 10.6497 12.5806 10.7087 13.1083 10.7087H16.475C17.0027 10.7087 17.5077 10.6497 17.8421 10.3153C18.1802 9.9772 18.2083 9.49073 18.2083 9.08366V3.41699C18.2083 3.00992 18.1802 2.52345 17.8421 2.18531C17.5077 1.85093 17.0027 1.79199 16.475 1.79199H13.1083Z" fill="#707791" stroke="#707791"/>
<path d="M16.475 18.958H13.1083C11.4333 18.958 10.625 18.183 10.625 16.583V15.083C10.625 13.483 11.4417 12.708 13.1083 12.708H16.475C18.15 12.708 18.9583 13.483 18.9583 15.083V16.583C18.9583 18.183 18.1417 18.958 16.475 18.958ZM13.1083 13.958C12.05 13.958 11.875 14.2413 11.875 15.083V16.583C11.875 17.4247 12.05 17.708 13.1083 17.708H16.475C17.5333 17.708 17.7083 17.4247 17.7083 16.583V15.083C17.7083 14.2413 17.5333 13.958 16.475 13.958H13.1083Z" fill="#707791"/>
<path d="M6.89175 18.9587H3.52508C1.85008 18.9587 1.04175 18.1837 1.04175 16.5837V10.917C1.04175 9.31699 1.85841 8.54199 3.52508 8.54199H6.89175C8.56675 8.54199 9.37508 9.31699 9.37508 10.917V16.5837C9.37508 18.1837 8.55841 18.9587 6.89175 18.9587ZM3.52508 9.79199C2.46675 9.79199 2.29175 10.0753 2.29175 10.917V16.5837C2.29175 17.4253 2.46675 17.7087 3.52508 17.7087H6.89175C7.95008 17.7087 8.12508 17.4253 8.12508 16.5837V10.917C8.12508 10.0753 7.95008 9.79199 6.89175 9.79199H3.52508V9.79199Z" fill="#707791"/>
<path d="M6.89175 7.29199H3.52508C1.85008 7.29199 1.04175 6.51699 1.04175 4.91699V3.41699C1.04175 1.81699 1.85841 1.04199 3.52508 1.04199H6.89175C8.56675 1.04199 9.37508 1.81699 9.37508 3.41699V4.91699C9.37508 6.51699 8.55841 7.29199 6.89175 7.29199ZM3.52508 2.29199C2.46675 2.29199 2.29175 2.57533 2.29175 3.41699V4.91699C2.29175 5.75866 2.46675 6.04199 3.52508 6.04199H6.89175C7.95008 6.04199 8.12508 5.75866 8.12508 4.91699V3.41699C8.12508 2.57533 7.95008 2.29199 6.89175 2.29199H3.52508V2.29199Z" fill="#707791"/>
</svg>
