<svg width="40" height="40" viewBox="0 0 40 40" fill="none" xmlns="http://www.w3.org/2000/svg">
<g id="vuesax/bold/dislike">
<g id="dislike">
<path id="Vector" d="M26.0169 9.16666V26.1C26.0169 26.7667 25.8169 27.4167 25.4502 27.9667L20.9002 34.7333C20.1835 35.8167 18.4002 36.5833 16.8835 36.0167C15.2502 35.4667 14.1669 33.6333 14.5169 32L15.3835 26.55C15.4502 26.05 15.3169 25.6 15.0335 25.25C14.7502 24.9333 14.3335 24.7333 13.8835 24.7333H7.03352C5.71686 24.7333 4.58352 24.2 3.91686 23.2667C3.28352 22.3667 3.16686 21.2 3.58352 20.0167L7.68352 7.53333C8.20019 5.46666 10.4502 3.78333 12.6835 3.78333H19.1835C20.3002 3.78333 21.8669 4.16666 22.5835 4.88333L24.7169 6.53333C25.5335 7.16666 26.0169 8.13333 26.0169 9.16666Z" fill="white"/>
<path id="Vector_2" d="M31.3164 29.35H33.0331C35.6164 29.35 36.6664 28.35 36.6664 25.8833V9.13329C36.6664 6.66663 35.6164 5.66663 33.0331 5.66663H31.3164C28.7331 5.66663 27.6831 6.66663 27.6831 9.13329V25.9C27.6831 28.35 28.7331 29.35 31.3164 29.35Z" fill="white"/>
</g>
</g>
</svg>
