<svg width="21" height="20" viewBox="0 0 21 20" fill="none" xmlns="http://www.w3.org/2000/svg">
<g id="vuesax/linear/eye">
<g id="eye">
<path id="Vector" d="M13.7333 10.0003C13.7333 11.6503 12.3999 12.9836 10.7499 12.9836C9.09993 12.9836 7.7666 11.6503 7.7666 10.0003C7.7666 8.3503 9.09993 7.01697 10.7499 7.01697C12.3999 7.01697 13.7333 8.3503 13.7333 10.0003Z" stroke="#4D65B4" stroke-width="1.5" stroke-linecap="round" stroke-linejoin="round"/>
<path id="Vector_2" d="M10.7499 16.8919C13.6915 16.8919 16.4332 15.1586 18.3415 12.1586C19.0915 10.9836 19.0915 9.00855 18.3415 7.83355C16.4332 4.83355 13.6915 3.10022 10.7499 3.10022C7.8082 3.10022 5.06654 4.83355 3.1582 7.83355C2.4082 9.00855 2.4082 10.9836 3.1582 12.1586C5.06654 15.1586 7.8082 16.8919 10.7499 16.8919Z" stroke="#4D65B4" stroke-width="1.5" stroke-linecap="round" stroke-linejoin="round"/>
</g>
</g>
</svg>
