<svg width="24" height="24" viewBox="0 0 24 24" fill="none" xmlns="http://www.w3.org/2000/svg">
<g id="gmail 1" clip-path="url(#clip0_6560_22035)">
<path id="Vector" d="M1.48766 20.4677H5.37192V11.0506L-0.183479 6.91797V18.8192C-0.183479 19.7225 0.561757 20.4677 1.48766 20.4677Z" fill="#4285F4"/>
<path id="Vector_2" d="M18.6507 20.4677H22.5349C23.4608 20.4677 24.2061 19.7225 24.2061 18.7966V6.91797L18.6733 11.0732V20.4677H18.6507Z" fill="#34A853"/>
<path id="Vector_3" d="M18.6507 3.87043V11.0744L24.1835 6.91913V4.706C24.1835 2.65096 21.8349 1.47664 20.1863 2.7187L18.6507 3.87043Z" fill="#FBBC04"/>
<path id="Vector_4" fill-rule="evenodd" clip-rule="evenodd" d="M5.34933 11.0515V3.87012L11.9887 8.86094L18.6281 3.87012V11.0741L12.0113 16.0423L5.34933 11.0515Z" fill="#EA4335"/>
<path id="Vector_5" d="M-0.183479 4.68255V6.89567L5.34934 11.0509V3.86956L3.79112 2.69525C2.16514 1.47577 -0.183479 2.65008 -0.183479 4.68255Z" fill="#C5221F"/>
</g>
<defs>
<clipPath id="clip0_6560_22035">
<rect width="24" height="24" fill="white"/>
</clipPath>
</defs>
</svg>
