<svg width="121" height="30" viewBox="0 0 121 30" fill="none" xmlns="http://www.w3.org/2000/svg">
<g id="Logo BG Light V1" clip-path="url(#clip0_6571_22059)">
<mask id="mask0_6571_22059" style="mask-type:luminance" maskUnits="userSpaceOnUse" x="0" y="0" width="121" height="30">
<g id="clip0_5035_554">
<path id="Vector" d="M121 30H0V0H121V30Z" fill="white"/>
</g>
</mask>
<g mask="url(#mask0_6571_22059)">
<g id="Group">
<path id="Vector_2" fill-rule="evenodd" clip-rule="evenodd" d="M71.9813 10.207C72.4739 9.84745 72.8776 9.69253 73.5142 9.61511C73.6968 9.59295 73.8735 9.57084 73.9013 9.56532C73.9345 9.56532 74.1723 9.58743 74.4271 9.62063C74.9417 9.68149 75.384 9.85297 75.716 10.1185C75.9484 10.3066 75.9542 10.3011 75.838 10.0189C75.7936 9.91383 75.755 9.81426 75.755 9.80318C75.755 9.78658 76.4297 9.78658 77.2543 9.7921L78.7593 9.8087L79.6225 12.4474C80.098 13.8968 80.5022 15.0973 80.5242 15.1194C80.5408 15.136 80.9612 13.9466 81.4537 12.4696L82.3501 9.78107H83.8439C85.2436 9.78107 85.3378 9.78658 85.31 9.87508C85.2992 9.93043 84.3531 12.1653 83.2078 14.8428C82.7401 15.9408 82.2633 17.0593 81.8421 18.0483C81.2355 19.4709 80.7433 20.6257 80.5574 21.0663L79.9818 22.4216L78.5602 22.4382C77.78 22.4437 77.1381 22.4382 77.1381 22.4216C77.1381 22.405 77.5862 21.4203 78.1394 20.2309L79.1411 18.0734L77.5808 14.273C76.7231 12.1819 76.004 10.4559 75.9874 10.4338C75.9542 10.4006 75.1077 11.4241 74.3939 12.3589C74.3383 12.4308 74.2997 12.4198 74.1225 12.3036C73.8627 12.1266 73.5914 12.0491 73.2374 12.0491C72.6344 12.0491 72.1697 12.3036 71.9095 12.7794L71.7435 13.0726L71.7269 15.8773L71.7103 18.6875H70.3048H68.8939V14.2343V9.78107H70.3048H71.7157V10.0908V10.4006L71.9813 10.207ZM50.547 13.2053C50.9454 11.33 52.4891 9.90276 54.4257 9.62063C56.8931 9.26659 58.9845 10.5556 59.5767 12.796C59.6875 13.2109 59.7261 14.533 59.6377 14.9369L59.5933 15.1471L56.3844 15.1581L53.175 15.1747L53.3468 15.5177C53.6788 16.1816 54.2539 16.5854 55.0233 16.7015C55.7922 16.8177 56.5777 16.6075 57.2031 16.1318L57.5629 15.8552L58.3206 16.6075L59.0733 17.3654L58.7356 17.6807C58.1936 18.1786 57.5903 18.4994 56.7715 18.7262C56.4894 18.8037 56.2072 18.8258 55.3938 18.8203C54.1709 18.8203 53.8058 18.7373 52.9153 18.2948C51.7255 17.6973 50.8902 16.6462 50.5802 15.3518C50.4474 14.8041 50.4308 13.753 50.547 13.2053ZM57.0869 13.0671C56.9487 12.5139 56.5172 12.016 56.0246 11.8334C55.7976 11.7449 55.5984 11.7173 55.2391 11.7228C54.4863 11.7283 54.1045 11.8887 53.6622 12.3811C53.4298 12.6356 53.1418 13.1943 53.2248 13.2219C53.2472 13.233 54.1323 13.233 55.1947 13.2219L57.1201 13.2053L57.0869 13.0671ZM35.1061 9.48811C33.9 9.64851 32.8875 10.163 32.1129 10.9928C31.2774 11.8945 30.9233 12.8128 30.9233 14.0962C30.9233 15.4018 31.3161 16.3975 32.1903 17.2992C32.7436 17.869 33.6123 18.3669 34.4146 18.5827C34.9623 18.7265 36.268 18.7596 36.8546 18.6435C37.6513 18.4831 38.4425 18.0792 39.0511 17.5316L39.3112 17.2992L38.9128 16.8622C38.697 16.6188 38.3097 16.215 38.0497 15.966L37.5849 15.5013L37.2861 15.7282C36.4285 16.3809 35.2887 16.3809 34.4644 15.7282C33.7893 15.1971 33.5514 14.0132 33.9387 13.1502C34.1268 12.7298 34.5086 12.3592 34.9568 12.149C35.2334 12.0217 35.3441 11.9996 35.8254 11.9996C36.4894 11.9996 36.8324 12.1047 37.2419 12.4256L37.524 12.6468L38.4038 11.7728C38.8906 11.2915 39.2835 10.8766 39.2835 10.8545C39.2835 10.7604 38.3982 10.1243 37.9943 9.92512C37.1865 9.5379 36.0302 9.36086 35.1061 9.48811ZM40.5007 12.0186V18.6845H41.9116H43.3225V15.9296V13.1803L43.4607 12.9037C43.6213 12.5717 43.6764 12.4998 43.9312 12.3117C44.1968 12.1181 44.479 12.0352 44.9047 12.0407C45.5247 12.0462 46.0227 12.356 46.2604 12.8871L46.3932 13.1803L46.4098 15.9296L46.4264 18.6845H47.8041H49.1872V15.5701C49.1872 12.6713 49.1818 12.4224 49.0822 12.0352C48.778 10.8458 47.9369 10.0105 46.7252 9.69514C46.3322 9.59001 45.2479 9.57341 44.8608 9.66195C44.4346 9.76153 44.0196 9.933 43.6598 10.1653L43.3225 10.3866V7.8696V5.35254H41.9116H40.5007V12.0186ZM65.7128 9.61511C65.0709 9.69253 64.6671 9.84745 64.1799 10.207L63.9143 10.4006V10.0908V9.78107H62.5035H61.0926V14.2343V18.6875H62.5035H63.909L63.9255 15.8773L63.9422 13.0726L64.1081 12.7794C64.3683 12.3036 64.8331 12.0491 65.436 12.0491C65.79 12.0491 66.0614 12.1266 66.3211 12.2981L66.5261 12.4419L66.6257 12.3147C66.6548 12.277 66.7701 12.1312 66.9312 11.9285L66.9332 11.9263C67.0789 11.7429 67.2615 11.5131 67.4499 11.2747L68.1694 10.3619L68.0308 10.2126C67.8428 10.0189 67.3171 9.74232 67.0129 9.67593C66.6257 9.59851 66.0722 9.57084 65.7128 9.61511Z" fill="url(#paint0_linear_6571_22059)"/>
<path id="Vector_3" fill-rule="evenodd" clip-rule="evenodd" d="M88.2538 11.2969C88.6741 10.7105 89.4709 10.1961 90.2622 9.99691C90.8598 9.84203 91.9441 9.88074 92.5362 10.0744C93.6259 10.4284 94.5115 11.2305 95.0314 12.3314C95.3688 13.0395 95.4244 13.3382 95.4244 14.428V14.4312C95.4186 15.3741 95.4186 15.4077 95.2418 15.9216C94.6994 17.4927 93.4824 18.5549 91.9495 18.8038C91.4295 18.8812 90.5718 18.8425 90.1402 18.7097C89.4265 18.4995 88.6907 18.0072 88.3144 17.4982L88.121 17.2382L88.0932 19.7774L88.0654 22.3111L87.4458 22.3277L86.8205 22.3442V16.1983V10.0578H87.457H88.0932V10.788V11.5127L88.2538 11.2969ZM93.211 11.9607C92.8072 11.5514 92.4806 11.3467 91.9661 11.1973C91.5901 11.0867 90.8705 11.0425 90.4888 11.1088C89.3435 11.3191 88.4364 12.182 88.1152 13.377C87.999 13.814 87.9824 14.7544 88.0878 15.2301C88.204 15.7778 88.5467 16.4195 88.9177 16.7901C89.4987 17.371 90.168 17.6365 91.0531 17.6365C91.9607 17.6365 92.6412 17.3655 93.2388 16.757C93.8695 16.1208 94.1463 15.3906 94.1405 14.345C94.1405 13.2995 93.8807 12.6357 93.211 11.9607ZM110.501 12.1876V18.6876H111.138H111.774V16.5467V14.4003L113.921 16.5467L116.062 18.6876H116.892H117.722L115.481 16.4471L113.24 14.2067L113.6 13.8527C113.799 13.659 114.656 12.8348 115.509 12.0216C116.361 11.2084 117.169 10.4339 117.307 10.3012L117.556 10.0577H116.764H115.974L113.887 12.088L111.801 14.1127L111.785 9.90285L111.774 5.6875H111.138H110.501V12.1876ZM97.7316 6.51729C97.4328 6.69985 97.322 6.93219 97.344 7.33049C97.3664 7.6403 97.3884 7.70116 97.5544 7.87264C98.13 8.46457 99.0483 8.08287 99.0483 7.25307C99.0483 6.74964 98.6997 6.40668 98.1906 6.40668C98.0138 6.40668 97.8478 6.44539 97.7316 6.51729ZM104.637 9.93053C103.071 10.1905 101.787 11.2139 101.217 12.6578C100.802 13.7089 100.83 15.1914 101.284 16.2259C101.621 16.9893 102.318 17.7859 103.015 18.2064C104.681 19.2187 106.971 19.0251 108.355 17.7527L108.681 17.454L108.277 17.0446C108.056 16.8233 107.857 16.6408 107.829 16.6408C107.807 16.6408 107.707 16.7182 107.608 16.8067C106.479 17.88 104.465 17.9076 103.303 16.8676C102.711 16.3365 102.373 15.6727 102.257 14.8042C102.047 13.2442 102.866 11.8003 104.244 11.2859C104.736 11.0978 105.71 11.0535 106.236 11.1918C106.695 11.308 107.154 11.5458 107.53 11.8501L107.829 12.0935L108.239 11.6842L108.642 11.2748L108.454 11.0756C107.995 10.5888 107.126 10.1408 106.335 9.98031C105.948 9.89734 104.985 9.86966 104.637 9.93053ZM97.5544 18.6876V14.3727V10.0577H98.1906H98.8271V14.3727V18.6876H98.1906H97.5544Z" fill="url(#paint1_linear_6571_22059)"/>
<path id="Vector_4" fill-rule="evenodd" clip-rule="evenodd" d="M14.7409 21.6689C17.7619 21.1157 20.3458 18.8752 21.3306 15.9599L21.4579 15.5893H23.826C25.7016 15.5893 26.194 15.6059 26.194 15.6612C26.194 15.6999 26.111 16.065 26.0059 16.4744C24.8274 21.1544 21.1812 24.8166 16.5115 26.0225C14.7631 26.4706 12.7104 26.5481 10.8845 26.2383C10.6189 26.1885 10.3534 26.1387 10.3036 26.1221C10.2095 26.0944 10.204 25.934 10.204 23.7212C10.204 22.4157 10.2261 21.3369 10.2483 21.3204C10.2759 21.3038 10.4308 21.3369 10.5968 21.3923C11.2608 21.6191 12.5499 21.8404 13.2139 21.8404C13.5126 21.8404 14.2485 21.7574 14.7409 21.6689ZM12.0022 0.0776364C8.88717 0.387426 6.2203 1.60446 4.02375 3.71767C1.84933 5.80876 0.532501 8.41984 0.0677374 11.5786C-0.0318545 12.2812 -0.0207887 14.3446 0.095402 15.0637C0.47717 17.4369 1.30157 19.4229 2.64606 21.1987C2.99463 21.6578 4.03482 22.8195 4.21738 22.9523C4.27826 22.9965 4.52172 23.1957 4.7541 23.4004C4.992 23.6106 5.20778 23.7765 5.23546 23.7765C5.25758 23.7765 5.2797 20.651 5.2797 16.8339V9.89135L5.50656 9.43218C6.18159 8.0824 7.32689 6.81003 8.61051 5.98576C9.65622 5.31641 10.8624 4.88491 12.1958 4.71895C13.0036 4.61386 13.4573 4.61386 14.2319 4.71895C15.676 4.90703 16.9541 5.39938 18.1326 6.2181C18.7412 6.64408 19.8367 7.75048 20.2572 8.37005C20.6168 8.90112 21.1038 9.836 21.2476 10.2675C21.2974 10.4113 21.3638 10.5607 21.3915 10.5994C21.4357 10.6492 21.9558 10.6658 23.7817 10.6548L26.111 10.6382L26.0944 10.4169C26.0723 10.1347 25.7458 9.02281 25.4969 8.38113C24.5286 5.90278 22.7028 3.66234 20.4564 2.18531C18.5476 0.935088 16.6221 0.282317 14.1047 0.044445C13.3632 -0.0219401 12.9372 -0.016407 12.0022 0.0776364ZM12.4116 9.59258C10.5636 9.99088 9.31317 11.7666 9.54555 13.6641C9.70602 15.0194 10.453 16.0539 11.6702 16.6126C12.2179 16.8671 12.5831 16.9446 13.2471 16.9446C13.9387 16.9446 14.2872 16.8671 14.8793 16.585C15.8475 16.1203 16.4783 15.3735 16.8379 14.2671C17.0094 13.7416 17.0039 12.7348 16.8213 12.1483C16.2404 10.2675 14.3536 9.17217 12.4116 9.59258Z" fill="url(#paint2_linear_6571_22059)"/>
<path id="Vector_5" d="M102.185 24.1475H44.5466C42.9424 24.1475 41.6419 25.4478 41.6419 27.0517V27.0932C41.6419 28.6972 42.9424 29.9975 44.5466 29.9975H102.185C103.79 29.9975 105.09 28.6972 105.09 27.0932V27.0517C105.09 25.4478 103.79 24.1475 102.185 24.1475Z" fill="black"/>
<path id="Vector_6" d="M46.6667 28.3292C46.5227 28.3292 46.3924 28.2927 46.275 28.2197C46.16 28.1467 46.0679 28.0482 45.9994 27.9243C45.933 27.7982 45.8998 27.6577 45.8998 27.5028C45.8998 27.3457 45.933 27.2052 45.9994 27.0812C46.0679 26.9551 46.16 26.8555 46.275 26.7825C46.3924 26.7073 46.5227 26.6697 46.6667 26.6697C46.7883 26.6697 46.8957 26.6962 46.9887 26.7493C47.0837 26.8002 47.1593 26.871 47.2144 26.9617C47.2696 27.0525 47.2974 27.1554 47.2974 27.2704V27.7285C47.2974 27.8435 47.2696 27.9464 47.2144 28.0372C47.1613 28.1279 47.087 28.1998 46.992 28.2529C46.897 28.3038 46.7883 28.3292 46.6667 28.3292ZM46.7264 27.9841C46.8173 27.9841 46.8957 27.9641 46.9621 27.9243C47.0306 27.8823 47.0837 27.8247 47.1215 27.7517C47.1593 27.6787 47.1779 27.5946 47.1779 27.4995C47.1779 27.4043 47.1593 27.3202 47.1215 27.2472C47.0837 27.1742 47.0306 27.1177 46.9621 27.0779C46.8957 27.0359 46.8173 27.0149 46.7264 27.0149C46.6381 27.0149 46.5592 27.0359 46.4907 27.0779C46.4243 27.1177 46.3712 27.1742 46.3314 27.2472C46.2936 27.3202 46.275 27.4043 46.275 27.4995C46.275 27.5946 46.2936 27.6787 46.3314 27.7517C46.3712 27.8247 46.4243 27.8823 46.4907 27.9243C46.5592 27.9641 46.6381 27.9841 46.7264 27.9841ZM47.5199 28.2961H47.1547V27.8679L47.2178 27.4795L47.1547 27.0945V25.9062H47.5199V28.2961ZM49.9603 28.3292C49.8009 28.3292 49.6569 28.2939 49.5287 28.223C49.4026 28.15 49.3017 28.0504 49.2266 27.9243C49.1536 27.7982 49.1171 27.6566 49.1171 27.4995C49.1171 27.3423 49.1536 27.2018 49.2266 27.0779C49.2996 26.9518 49.398 26.8522 49.5221 26.7792C49.6482 26.7062 49.7876 26.6697 49.9404 26.6697C50.0885 26.6697 50.2192 26.704 50.3321 26.7726C50.447 26.8411 50.5367 26.9352 50.601 27.0547C50.6674 27.1742 50.7006 27.3103 50.7006 27.4629C50.7006 27.4895 50.6981 27.5172 50.6939 27.5459C50.6914 27.5725 50.6873 27.6023 50.6807 27.6355H49.3727V27.3368H50.4914L50.3553 27.4563C50.3508 27.3589 50.3321 27.2771 50.2989 27.2107C50.2657 27.1443 50.218 27.0934 50.1561 27.058C50.0964 27.0226 50.0221 27.0049 49.9337 27.0049C49.8408 27.0049 49.7598 27.0248 49.6914 27.0646C49.6225 27.1045 49.5694 27.1609 49.532 27.2339C49.4943 27.3047 49.4756 27.3899 49.4756 27.4895C49.4756 27.5891 49.4955 27.6765 49.5353 27.7517C49.5752 27.8269 49.6316 27.8856 49.7047 27.9276C49.7777 27.9675 49.8615 27.9874 49.957 27.9874C50.0387 27.9874 50.1138 27.973 50.1827 27.9442C50.2532 27.9155 50.313 27.8734 50.362 27.8181L50.5943 28.0538C50.5167 28.1445 50.4225 28.2131 50.3122 28.2595C50.2014 28.306 50.0839 28.3292 49.9603 28.3292ZM52.9551 28.3292C52.8115 28.3292 52.6808 28.2927 52.5634 28.2197C52.4484 28.1467 52.3567 28.0482 52.2878 27.9243C52.2214 27.7982 52.1882 27.6577 52.1882 27.5028C52.1882 27.3457 52.2214 27.2052 52.2878 27.0812C52.3567 26.9551 52.4484 26.8555 52.5634 26.7825C52.6808 26.7073 52.8115 26.6697 52.9551 26.6697C53.0771 26.6697 53.1841 26.6962 53.2771 26.7493C53.3725 26.8002 53.4476 26.871 53.5028 26.9617C53.5584 27.0525 53.5858 27.1554 53.5858 27.2704V27.7285C53.5858 27.8435 53.5584 27.9464 53.5028 28.0372C53.4497 28.1279 53.3759 28.1998 53.2804 28.2529C53.1854 28.3038 53.0771 28.3292 52.9551 28.3292ZM53.0148 27.9841C53.1501 27.9841 53.2584 27.9387 53.3402 27.848C53.4244 27.7572 53.4663 27.6411 53.4663 27.4995C53.4663 27.4043 53.4476 27.3202 53.4099 27.2472C53.3725 27.1742 53.3194 27.1177 53.2505 27.0779C53.1841 27.0359 53.1057 27.0149 53.0148 27.0149C52.9264 27.0149 52.848 27.0359 52.7791 27.0779C52.7127 27.1177 52.6596 27.1742 52.6198 27.2472C52.5824 27.3202 52.5634 27.4043 52.5634 27.4995C52.5634 27.5946 52.5824 27.6787 52.6198 27.7517C52.6596 27.8247 52.7127 27.8823 52.7791 27.9243C52.848 27.9641 52.9264 27.9841 53.0148 27.9841ZM53.4431 28.2961V27.8679L53.5062 27.4795L53.4431 27.0945V26.7029H53.8083V28.2961H53.4431ZM55.5084 28.2961V25.9062H55.8735V28.2961H55.5084ZM58.0957 28.3292C58.0073 28.3292 57.9222 28.3182 57.8401 28.2961C57.7583 28.2717 57.6832 28.2385 57.6143 28.1965C57.5459 28.1522 57.4861 28.0991 57.4351 28.0372L57.6674 27.8048C57.723 27.869 57.7861 27.9177 57.8567 27.9509C57.9297 27.9819 58.0119 27.9973 58.1023 27.9973C58.1845 27.9973 58.2463 27.9852 58.2882 27.9608C58.3306 27.9365 58.3513 27.9011 58.3513 27.8546C58.3513 27.8059 58.3314 27.7683 58.2915 27.7418C58.2517 27.7152 58.1998 27.6931 58.1355 27.6754C58.0737 27.6555 58.0073 27.6355 57.9363 27.6156C57.8679 27.5957 57.8015 27.5692 57.7372 27.536C57.6753 27.5006 57.6243 27.453 57.5844 27.3932C57.5446 27.3335 57.5247 27.256 57.5247 27.1609C57.5247 27.0591 57.5479 26.9717 57.5944 26.8987C57.6434 26.8257 57.7106 26.7692 57.7969 26.7294C57.8857 26.6896 57.9907 26.6697 58.1123 26.6697C58.2409 26.6697 58.3538 26.6929 58.4509 26.7394C58.5505 26.7836 58.6335 26.8511 58.6999 26.9418L58.4675 27.1742C58.421 27.1166 58.3679 27.0735 58.3081 27.0447C58.2484 27.016 58.1799 27.0016 58.1023 27.0016C58.0293 27.0016 57.9729 27.0127 57.933 27.0348C57.8932 27.0569 57.8733 27.089 57.8733 27.131C57.8733 27.1753 57.8932 27.2096 57.933 27.2339C57.9729 27.2583 58.0239 27.2793 58.0857 27.297C58.15 27.3147 58.2164 27.3346 58.2849 27.3567C58.3559 27.3766 58.4223 27.4054 58.4841 27.443C58.5484 27.4784 58.6003 27.5271 58.6401 27.5891C58.68 27.6488 58.6999 27.7274 58.6999 27.8247C58.6999 27.9796 58.6459 28.1024 58.5372 28.1932C58.4289 28.2839 58.2816 28.3292 58.0957 28.3292ZM62.7197 28.2961L62.0789 26.7029H62.4574L62.889 27.8612L62.7761 27.8646L63.1977 26.7029H63.4102L63.8318 27.8646L63.7189 27.8612L64.1505 26.7029H64.5289L63.8882 28.2961H63.6757L63.2442 27.1941H63.3637L62.9321 28.2961H62.7197ZM66.744 28.3292C66.5888 28.3292 66.4485 28.2927 66.3224 28.2197C66.1962 28.1445 66.0954 28.0438 66.0203 27.9177C65.9473 27.7915 65.9107 27.651 65.9107 27.4961C65.9107 27.3413 65.9473 27.2018 66.0203 27.0779C66.0954 26.954 66.1962 26.8555 66.3224 26.7825C66.4485 26.7073 66.5888 26.6697 66.744 26.6697C66.9009 26.6697 67.0428 26.7062 67.1689 26.7792C67.2951 26.8522 67.3947 26.9518 67.4677 27.0779C67.5428 27.2018 67.5806 27.3413 67.5806 27.4961C67.5806 27.651 67.5428 27.7915 67.4677 27.9177C67.3947 28.0438 67.2951 28.1445 67.1689 28.2197C67.0428 28.2927 66.9009 28.3292 66.744 28.3292ZM66.744 27.9774C66.8345 27.9774 66.9141 27.9575 66.983 27.9177C67.0536 27.8756 67.1079 27.8181 67.1457 27.7451C67.1855 27.672 67.2054 27.5891 67.2054 27.4961C67.2054 27.4032 67.1855 27.3213 67.1457 27.2505C67.1058 27.1797 67.0515 27.1244 66.983 27.0846C66.9141 27.0425 66.8345 27.0215 66.744 27.0215C66.6552 27.0215 66.5755 27.0425 66.505 27.0846C66.4361 27.1244 66.3821 27.1797 66.3423 27.2505C66.3045 27.3213 66.2859 27.4032 66.2859 27.4961C66.2859 27.5891 66.3045 27.672 66.3423 27.7451C66.3821 27.8181 66.4361 27.8756 66.505 27.9177C66.5755 27.9575 66.6552 27.9774 66.744 27.9774ZM69.179 28.2961V26.7029H69.5442V28.2961H69.179ZM69.5442 27.4098L69.418 27.3468C69.418 27.1454 69.462 26.9828 69.5508 26.8589C69.6413 26.7327 69.7774 26.6697 69.9592 26.6697C70.0388 26.6697 70.1106 26.6841 70.1749 26.7128C70.2388 26.7416 70.2986 26.788 70.3542 26.8522L70.1152 27.0978C70.0861 27.0668 70.0542 27.0447 70.0189 27.0315C69.9832 27.0182 69.9426 27.0115 69.8961 27.0115C69.794 27.0115 69.7102 27.0436 69.6438 27.1078C69.5774 27.172 69.5442 27.2726 69.5442 27.4098ZM72.0709 28.2961V26.039H72.4361V28.2961H72.0709ZM71.6891 27.0348V26.7029H72.8179V27.0348H71.6891ZM75.4703 28.2961V27.3766C75.4703 27.2704 75.4359 27.183 75.3674 27.1144C75.301 27.0458 75.2147 27.0115 75.1085 27.0115C75.0375 27.0115 74.9744 27.027 74.9192 27.058C74.8636 27.089 74.8205 27.1321 74.7898 27.1875C74.7587 27.2428 74.7433 27.3058 74.7433 27.3766L74.6006 27.297C74.6006 27.1753 74.6271 27.068 74.6802 26.975C74.7333 26.8799 74.8064 26.8057 74.8993 26.7526C74.9944 26.6973 75.1006 26.6697 75.218 26.6697C75.3375 26.6697 75.4438 26.6962 75.5367 26.7493C75.6297 26.8024 75.7027 26.8766 75.7558 26.9717C75.8089 27.0646 75.8355 27.1731 75.8355 27.297V28.2961H75.4703ZM74.3781 28.2961V25.9062H74.7433V28.2961H74.3781ZM80.3134 28.3292C80.1918 28.3292 80.0835 28.3038 79.9881 28.2529C79.893 28.1998 79.8179 28.1279 79.7623 28.0372C79.7092 27.9464 79.6826 27.8435 79.6826 27.7285V27.2704C79.6826 27.1554 79.7104 27.0525 79.7656 26.9617C79.8212 26.871 79.8964 26.8002 79.9914 26.7493C80.0868 26.6962 80.1939 26.6697 80.3134 26.6697C80.4574 26.6697 80.5869 26.7073 80.7018 26.7825C80.8192 26.8555 80.9109 26.9551 80.9773 27.0812C81.0462 27.2052 81.0802 27.3457 81.0802 27.5028C81.0802 27.6577 81.0462 27.7982 80.9773 27.9243C80.9109 28.0482 80.8192 28.1467 80.7018 28.2197C80.5869 28.2927 80.4574 28.3292 80.3134 28.3292ZM79.4602 28.9599V26.7029H79.8254V27.131L79.7623 27.5194L79.8254 27.9044V28.9599H79.4602ZM80.2536 27.9841C80.3424 27.9841 80.4196 27.9641 80.486 27.9243C80.5549 27.8823 80.608 27.8247 80.6454 27.7517C80.6852 27.6787 80.7051 27.5946 80.7051 27.4995C80.7051 27.4043 80.6852 27.3202 80.6454 27.2472C80.608 27.1742 80.5549 27.1177 80.486 27.0779C80.4196 27.0359 80.3424 27.0149 80.2536 27.0149C80.1652 27.0149 80.0868 27.0359 80.0179 27.0779C79.9495 27.1177 79.8963 27.1742 79.8586 27.2472C79.8212 27.3202 79.8022 27.4043 79.8022 27.4995C79.8022 27.5946 79.8212 27.6787 79.8586 27.7517C79.8963 27.8247 79.9495 27.8823 80.0179 27.9243C80.0868 27.9641 80.1652 27.9841 80.2536 27.9841ZM83.3348 28.3292C83.1999 28.3292 83.0791 28.2994 82.9729 28.2396C82.8688 28.1799 82.787 28.098 82.7272 27.994C82.6696 27.8878 82.6409 27.7661 82.6409 27.6289V26.7029H83.0061V27.6123C83.0061 27.6898 83.0181 27.7562 83.0426 27.8115C83.0692 27.8646 83.1069 27.9055 83.1555 27.9343C83.2065 27.963 83.2663 27.9774 83.3348 27.9774C83.441 27.9774 83.5219 27.9464 83.5771 27.8845C83.6348 27.8203 83.6634 27.7296 83.6634 27.6123V26.7029H84.0286V27.6289C84.0286 27.7683 83.9987 27.8911 83.939 27.9973C83.8813 28.1013 83.8008 28.1832 83.6966 28.2429C83.5925 28.3005 83.4721 28.3292 83.3348 28.3292ZM85.6905 28.2961V26.7029H86.0557V28.2961H85.6905ZM86.0557 27.4098L85.9295 27.3468C85.9295 27.1454 85.9739 26.9828 86.0623 26.8589C86.1532 26.7327 86.2893 26.6697 86.4707 26.6697C86.5503 26.6697 86.6221 26.6841 86.6864 26.7128C86.7508 26.7416 86.8105 26.788 86.8657 26.8522L86.6267 27.0978C86.5981 27.0668 86.5657 27.0447 86.5304 27.0315C86.4951 27.0182 86.4541 27.0115 86.4076 27.0115C86.3059 27.0115 86.2217 27.0436 86.1553 27.1078C86.0889 27.172 86.0557 27.2726 86.0557 27.4098ZM88.8227 28.3292C88.7339 28.3292 88.6488 28.3182 88.5671 28.2961C88.4849 28.2717 88.4098 28.2385 88.3413 28.1965C88.2724 28.1522 88.2127 28.0991 88.1621 28.0372L88.3944 27.8048C88.4496 27.869 88.5127 27.9177 88.5837 27.9509C88.6567 27.9819 88.7384 27.9973 88.8293 27.9973C88.9111 27.9973 88.9729 27.9852 89.0152 27.9608C89.0571 27.9365 89.0783 27.9011 89.0783 27.8546C89.0783 27.8059 89.0584 27.7683 89.0186 27.7418C88.9787 27.7152 88.9264 27.6931 88.8625 27.6754C88.8003 27.6555 88.7339 27.6355 88.6633 27.6156C88.5945 27.5957 88.5281 27.5692 88.4642 27.536C88.4019 27.5006 88.3513 27.453 88.3114 27.3932C88.2716 27.3335 88.2517 27.256 88.2517 27.1609C88.2517 27.0591 88.2749 26.9717 88.3214 26.8987C88.37 26.8257 88.4376 26.7692 88.5239 26.7294C88.6123 26.6896 88.7173 26.6697 88.8393 26.6697C88.9675 26.6697 89.0804 26.6929 89.1779 26.7394C89.2775 26.7836 89.3605 26.8511 89.4269 26.9418L89.1945 27.1742C89.148 27.1166 89.0949 27.0735 89.0352 27.0447C88.9754 27.016 88.9065 27.0016 88.8293 27.0016C88.7563 27.0016 88.6999 27.0127 88.66 27.0348C88.6202 27.0569 88.6003 27.089 88.6003 27.131C88.6003 27.1753 88.6202 27.2096 88.66 27.2339C88.6999 27.2583 88.7505 27.2793 88.8127 27.297C88.8766 27.3147 88.943 27.3346 89.0119 27.3567C89.0825 27.3766 89.1489 27.4054 89.2111 27.443C89.275 27.4784 89.3273 27.5271 89.3671 27.5891C89.407 27.6488 89.4269 27.7274 89.4269 27.8247C89.4269 27.9796 89.3725 28.1024 89.2642 28.1932C89.1555 28.2839 89.0086 28.3292 88.8227 28.3292ZM91.6764 28.3292C91.5415 28.3292 91.4208 28.2994 91.3146 28.2396C91.2108 28.1799 91.1287 28.098 91.0689 27.994C91.0116 27.8878 90.9826 27.7661 90.9826 27.6289V26.7029H91.3478V27.6123C91.3478 27.6898 91.3602 27.7562 91.3843 27.8115C91.4108 27.8646 91.4486 27.9055 91.4971 27.9343C91.5482 27.963 91.6079 27.9774 91.6764 27.9774C91.7826 27.9774 91.8636 27.9464 91.9188 27.8845C91.9764 27.8203 92.0051 27.7296 92.0051 27.6123V26.7029H92.3702V27.6289C92.3702 27.7683 92.3404 27.8911 92.2806 27.9973C92.2233 28.1013 92.1424 28.1832 92.0383 28.2429C91.9345 28.3005 91.8138 28.3292 91.6764 28.3292ZM94.0355 28.2961V26.7029H94.4007V28.2961H94.0355ZM94.2181 26.4108C94.1562 26.4108 94.104 26.3897 94.0621 26.3477C94.0222 26.3057 94.0023 26.2536 94.0023 26.1917C94.0023 26.1298 94.0222 26.0777 94.0621 26.0357C94.104 25.9937 94.1562 25.9726 94.2181 25.9726C94.2824 25.9726 94.3343 25.9937 94.3741 26.0357C94.4139 26.0777 94.4339 26.1298 94.4339 26.1917C94.4339 26.2536 94.4139 26.3057 94.3741 26.3477C94.3343 26.3897 94.2824 26.4108 94.2181 26.4108ZM97.1971 28.2961V27.3766C97.1971 27.2704 97.1627 27.183 97.0942 27.1144C97.0278 27.0458 96.9415 27.0115 96.8353 27.0115C96.7643 27.0115 96.7012 27.027 96.646 27.058C96.5909 27.089 96.5477 27.1321 96.5166 27.1875C96.4855 27.2428 96.4701 27.3058 96.4701 27.3766L96.3274 27.297C96.3274 27.1753 96.3539 27.068 96.407 26.975C96.4601 26.8799 96.5332 26.8057 96.6261 26.7526C96.7212 26.6973 96.8274 26.6697 96.9448 26.6697C97.0643 26.6697 97.1706 26.7007 97.2635 26.7626C97.3565 26.8223 97.4295 26.9009 97.4826 26.9983C97.5357 27.0934 97.5623 27.193 97.5623 27.297V28.2961H97.1971ZM96.1049 28.2961V26.7029H96.4701V28.2961H96.1049ZM99.8919 28.9931C99.7239 28.9931 99.5765 28.9621 99.4504 28.9001C99.3242 28.8404 99.2226 28.7552 99.145 28.6446L99.384 28.4056C99.4483 28.4852 99.5214 28.545 99.6031 28.5848C99.6853 28.6247 99.7836 28.6446 99.8985 28.6446C100.043 28.6446 100.157 28.6069 100.24 28.5317C100.325 28.4587 100.367 28.358 100.367 28.2297V27.838L100.43 27.4862L100.367 27.131V26.7029H100.732V28.2297C100.732 28.3824 100.697 28.5151 100.626 28.628C100.555 28.743 100.456 28.8326 100.33 28.8968C100.204 28.961 100.058 28.9931 99.8919 28.9931ZM99.8753 28.2629C99.7338 28.2629 99.6056 28.2286 99.4902 28.16C99.3774 28.0891 99.2877 27.9929 99.2213 27.8712C99.1574 27.7495 99.1251 27.6134 99.1251 27.4629C99.1251 27.3125 99.1574 27.1775 99.2213 27.058C99.2877 26.9385 99.3774 26.8445 99.4902 26.7759C99.6056 26.705 99.7338 26.6697 99.8753 26.6697C100.001 26.6697 100.112 26.6951 100.207 26.746C100.303 26.7969 100.377 26.8677 100.43 26.9584C100.483 27.0469 100.509 27.1509 100.509 27.2704V27.6621C100.509 27.7794 100.482 27.8834 100.426 27.9741C100.373 28.0648 100.299 28.1356 100.204 28.1865C100.109 28.2374 99.9994 28.2629 99.8753 28.2629ZM99.9484 27.9177C100.037 27.9177 100.114 27.8989 100.181 27.8612C100.247 27.8236 100.298 27.7716 100.333 27.7052C100.371 27.6367 100.39 27.557 100.39 27.4663C100.39 27.3755 100.371 27.297 100.333 27.2306C100.298 27.162 100.247 27.1089 100.181 27.0713C100.114 27.0336 100.037 27.0149 99.9484 27.0149C99.86 27.0149 99.7815 27.0336 99.7126 27.0713C99.6462 27.1089 99.5944 27.162 99.5566 27.2306C99.5193 27.297 99.5002 27.3755 99.5002 27.4663C99.5002 27.5548 99.5193 27.6333 99.5566 27.7019C99.5944 27.7705 99.6462 27.8236 99.7126 27.8612C99.7815 27.8989 99.86 27.9177 99.9484 27.9177Z" fill="white"/>
</g>
</g>
</g>
<defs>
<linearGradient id="paint0_linear_6571_22059" x1="58.1185" y1="22.4402" x2="58.1185" y2="5.35254" gradientUnits="userSpaceOnUse">
<stop stop-color="#4D65B4"/>
<stop offset="1" stop-color="#5E84F1"/>
</linearGradient>
<linearGradient id="paint1_linear_6571_22059" x1="102.271" y1="22.3442" x2="102.271" y2="5.6875" gradientUnits="userSpaceOnUse">
<stop stop-color="#4D65B4"/>
<stop offset="1" stop-color="#5E84F1"/>
</linearGradient>
<linearGradient id="paint2_linear_6571_22059" x1="13.097" y1="26.4252" x2="13.097" y2="0" gradientUnits="userSpaceOnUse">
<stop stop-color="#4D65B4"/>
<stop offset="1" stop-color="#5E84F1"/>
</linearGradient>
<clipPath id="clip0_6571_22059">
<rect width="121" height="30" fill="white"/>
</clipPath>
</defs>
</svg>
