<svg width="24" height="24" viewBox="0 0 24 24" fill="none" xmlns="http://www.w3.org/2000/svg">
<g id="mail 1" clip-path="url(#clip0_6576_25044)">
<g id="@2x">
<g id="Mail">
<path id="bg" d="M18.4 0H5.6C2.50721 0 0 2.50721 0 5.6V18.4C0 21.4928 2.50721 24 5.6 24H18.4C21.4928 24 24 21.4928 24 18.4V5.6C24 2.50721 21.4928 0 18.4 0Z" fill="url(#paint0_linear_6576_25044)"/>
<path id="mail" fill-rule="evenodd" clip-rule="evenodd" d="M5.0228 16.9931L9.262 12.6031L10.288 13.6361C10.5214 13.8718 10.7993 14.059 11.1055 14.1867C11.4117 14.3144 11.7402 14.3802 12.072 14.3802C12.4038 14.3802 12.7323 14.3144 13.0385 14.1867C13.3447 14.059 13.6226 13.8718 13.856 13.6361L14.784 12.7017L18.9332 16.9983C18.867 17.0123 18.7982 17.0195 18.7278 17.0195H5.252C5.1732 17.0195 5.0964 17.0103 5.0228 16.9931ZM19.7012 7.75007C19.7186 7.82407 19.7278 7.90107 19.7278 7.98027V16.0195C19.7278 16.2775 19.63 16.5127 19.4698 16.6901L15.2066 12.2759L19.701 7.74987L19.7012 7.75007ZM4.272 16.2191V8.18027C4.272 8.00667 4.3162 7.84327 4.394 7.70087L8.8392 12.1773L4.4964 16.6743C4.38354 16.5444 4.30624 16.3877 4.272 16.2191ZM19.3654 7.20987L13.4378 13.1373C12.6568 13.9185 11.3904 13.9185 10.6094 13.1373L4.652 7.18027C4.819 7.05487 5.0268 6.98047 5.252 6.98047H18.7276C18.9604 6.98012 19.186 7.06136 19.3652 7.21007L19.3654 7.20987Z" fill="white"/>
</g>
</g>
</g>
<defs>
<linearGradient id="paint0_linear_6576_25044" x1="1200" y1="0" x2="1200" y2="2400" gradientUnits="userSpaceOnUse">
<stop stop-color="#008EE7"/>
<stop offset="1" stop-color="#00D6FA"/>
</linearGradient>
<clipPath id="clip0_6576_25044">
<rect width="24" height="24" fill="white"/>
</clipPath>
</defs>
</svg>
