<svg width="24" height="24" viewBox="0 0 24 24" fill="none" xmlns="http://www.w3.org/2000/svg">
<g id="microsoft-outlook 1" clip-path="url(#clip0_6560_22046)">
<path id="Vector" d="M14.635 5.298V10.379L16.604 11.944L23.973 6.008C23.9692 5.90973 23.9453 5.81328 23.9026 5.72468C23.86 5.63607 23.7995 5.55721 23.725 5.493C23.5743 5.36325 23.3808 5.29411 23.182 5.299L14.635 5.298ZM13.404 0.75L0 3.154V20.91L13.404 23.25V0.75ZM8.506 14.871C7.935 15.625 7.216 16.018 6.361 16.053C5.534 16.01 4.831 15.612 4.26 14.865C3.69 14.113 3.39 13.174 3.375 12.045C3.39 10.901 3.675 9.952 4.245 9.202C4.816 8.453 5.521 8.059 6.345 8.026C7.201 8.059 7.921 8.454 8.476 9.202C9.042 9.952 9.335 10.9 9.355 12.045H9.391C9.376 13.173 9.076 14.115 8.506 14.871Z" fill="#136EC5"/>
<path id="Vector_2" d="M6.235 9.53684L6.208 9.57684C5.773 9.60784 5.411 9.85084 5.127 10.3048C4.827 10.7588 4.692 11.3508 4.692 12.0628C4.692 12.7738 4.827 13.3658 5.127 13.8348C5.427 14.3038 5.786 14.5318 6.222 14.5318C6.658 14.5318 7.017 14.2898 7.318 13.8208C7.604 13.3518 7.753 12.7598 7.753 12.0318C7.753 11.3178 7.603 10.7278 7.318 10.2618C7.029 9.79584 6.666 9.55784 6.235 9.53684ZM14.635 18.7398H23.182C23.2893 18.7422 23.396 18.7229 23.4957 18.683C23.5953 18.6432 23.6859 18.5836 23.762 18.5078C23.8397 18.4325 23.901 18.342 23.942 18.2418C23.983 18.1416 24.0027 18.034 24 17.9258V7.33984L17.003 12.9498C16.8918 13.0358 16.7545 13.081 16.614 13.0778C16.4765 13.0828 16.3418 13.0377 16.235 12.9508L14.635 11.7088V18.7398Z" fill="#136EC5"/>
</g>
<defs>
<clipPath id="clip0_6560_22046">
<rect width="24" height="24" fill="white"/>
</clipPath>
</defs>
</svg>
