<svg width="301" height="218" viewBox="0 0 301 218" fill="none" xmlns="http://www.w3.org/2000/svg">
<g clip-path="url(#clip0_4673_25288)">
<path d="M43.8027 186.813V187.373C43.8035 188.301 44.1726 189.191 44.8288 189.847C45.485 190.504 46.3748 190.873 47.3029 190.873H76.9841C77.9123 190.873 78.8024 190.504 79.4587 189.848C80.115 189.192 80.4839 188.301 80.4842 187.373V186.813C80.486 185.994 80.1983 185.201 79.6721 184.573C79.497 184.365 79.2988 184.177 79.0813 184.013H63.6863C63.5006 184.013 63.3226 183.939 63.1914 183.808C63.0601 183.677 62.9863 183.499 62.9862 183.313H47.3029C46.375 183.314 45.4855 183.684 44.8293 184.34C44.1732 184.996 43.804 185.885 43.8027 186.813Z" fill="#3F3D56"/>
<path d="M60.186 216.495H63.8262V190.734H60.186V216.495Z" fill="#3F3D56"/>
<path d="M49.8242 216.367C49.8242 216.761 55.3403 216.52 62.1447 216.52C68.9492 216.52 74.4652 216.761 74.4652 216.367C74.4652 215.974 68.9492 212.855 62.1447 212.855C55.3403 212.855 49.8242 215.974 49.8242 216.367Z" fill="#3F3D56"/>
<path d="M49.5147 186.222L61.9359 188.205L76.3677 190.509L81.3716 191.307C81.852 191.383 82.3428 191.265 82.7365 190.98C83.1301 190.694 83.3945 190.264 83.4717 189.784L83.6985 188.367L83.9085 187.048L84.082 185.962C84.1212 185.719 84.1107 185.471 84.051 185.232C83.9914 184.993 83.8838 184.769 83.7349 184.573C83.5588 184.332 83.3247 184.14 83.0544 184.013H63.686C63.5004 184.013 63.3224 183.939 63.1911 183.808C63.0598 183.677 62.986 183.499 62.986 183.313V182.762C62.986 182.576 63.0598 182.398 63.1911 182.267C63.3224 182.135 63.5004 182.062 63.686 182.061H71.2968L67.7882 181.501L57.0021 179.779L50.7047 178.774C50.2232 178.698 49.7311 178.816 49.3363 179.102C48.9416 179.388 48.6764 179.819 48.599 180.3L47.9886 184.12C47.914 184.601 48.0326 185.091 48.3185 185.485C48.6043 185.879 49.0343 186.144 49.5147 186.222Z" fill="#6C63FF"/>
<path d="M76.3691 185.69V207.03C76.3698 207.516 76.5633 207.982 76.9071 208.326C77.2509 208.67 77.717 208.863 78.2032 208.864H82.0757C82.562 208.864 83.0281 208.67 83.3719 208.326C83.7157 207.982 83.9092 207.516 83.9099 207.03V185.69C83.9105 185.286 83.7755 184.892 83.5262 184.573C83.3417 184.328 83.0966 184.135 82.815 184.013H77.4612C77.1808 184.136 76.9368 184.329 76.7528 184.573C76.5039 184.892 76.3689 185.286 76.3691 185.69Z" fill="#6C63FF"/>
<path d="M64.6977 149.572C64.7174 149.762 64.7665 149.948 64.8433 150.123C64.9599 150.391 65.1396 150.626 65.367 150.809L65.3754 150.815L76.4247 159.778L76.587 159.907L78.8748 161.763L79.5664 162.323H91.5312L90.8424 161.763L81.3864 154.091L75.0498 148.95L70.1188 144.952C69.8302 144.716 69.4764 144.576 69.1051 144.548C69.1037 144.547 69.1017 144.546 69.0995 144.546C68.9894 144.538 68.8788 144.54 68.7691 144.551C68.6048 144.568 68.4436 144.607 68.2903 144.669C68.1855 144.707 68.0858 144.758 67.9934 144.82C67.8194 144.926 67.665 145.062 67.5371 145.22L65.1345 148.18L65.0982 148.228C64.9459 148.414 64.832 148.629 64.7633 148.86C64.6946 149.09 64.6723 149.332 64.6977 149.572Z" fill="#6C63FF"/>
<path d="M65.3752 150.815C65.5834 151.336 65.8863 151.813 66.2684 152.223L73.6244 160.125C73.8021 160.289 74.0104 160.415 74.2372 160.498C74.464 160.58 74.7048 160.617 74.946 160.607C75.1871 160.596 75.4238 160.538 75.6424 160.436C75.861 160.333 76.0573 160.189 76.2199 160.011L76.4245 159.778L76.514 159.677L79.6922 156.113L81.0586 154.578C81.1495 154.484 81.2284 154.378 81.2938 154.265C81.3274 154.209 81.3582 154.15 81.3862 154.091C81.5008 153.829 81.5535 153.545 81.5402 153.259C81.5309 153.017 81.4728 152.778 81.3694 152.558C81.2659 152.339 81.1193 152.142 80.9382 151.98L72.409 145.461C71.4679 144.74 70.283 144.412 69.1049 144.548C69.1035 144.547 69.1015 144.546 69.0993 144.546C68.8377 144.578 68.5792 144.633 68.3264 144.708C68.2145 144.739 68.1053 144.778 67.9932 144.82C67.2701 145.092 66.629 145.545 66.1312 146.136C65.5896 146.772 65.2328 147.545 65.0995 148.37C64.9663 149.195 65.0616 150.04 65.3752 150.815Z" fill="#2F2E41"/>
<path d="M61.8824 138.041C69.6336 138.041 75.9172 131.757 75.9172 124.006C75.9172 116.255 69.6336 109.971 61.8824 109.971C54.1312 109.971 47.8477 116.255 47.8477 124.006C47.8477 131.757 54.1312 138.041 61.8824 138.041Z" fill="#6C63FF"/>
<path d="M58.1459 184.288L63.3512 185.116L63.469 185.136L71.382 186.399L76.369 187.197L83.6998 188.367L83.9098 188.401L84.9989 188.574L90.0028 189.373C90.4832 189.448 90.974 189.331 91.3677 189.045C91.7614 188.759 92.0257 188.329 92.1029 187.849L92.5397 185.116L92.7134 184.03C92.7134 184.024 92.7161 184.019 92.7161 184.013H63.6873C63.5017 184.013 63.3237 183.939 63.1924 183.808C63.0611 183.677 62.9874 183.499 62.9873 183.313V182.761C62.9874 182.576 63.0611 182.398 63.1924 182.267C63.3237 182.135 63.5017 182.061 63.6873 182.061H72.8604V179.001L72.3004 178.911L69.5339 178.469L59.3332 176.842C58.8524 176.766 58.3609 176.883 57.9666 177.169C57.5723 177.454 57.3075 177.885 57.2302 178.365L57.0034 179.779L56.6197 182.187C56.5446 182.668 56.663 183.159 56.949 183.553C57.2351 183.946 57.6654 184.211 58.1459 184.288Z" fill="#6C63FF"/>
<path d="M42.7812 171.889C42.7812 183.33 43.9434 190.173 61.8642 188.213C61.8893 188.211 61.9117 188.208 61.9369 188.205C65.1332 187.889 68.2944 187.285 71.3817 186.399C72.9861 185.93 74.5455 185.319 76.0411 184.573C76.3939 184.394 76.7327 184.206 77.066 184.013H63.6869C63.5013 184.013 63.3233 183.939 63.192 183.808C63.0608 183.677 62.987 183.499 62.9869 183.313V182.762C62.987 182.576 63.0608 182.398 63.192 182.267C63.3233 182.135 63.5013 182.062 63.6869 182.061H72.8601V164.376C72.8608 163.832 73.0773 163.31 73.4621 162.925C73.8468 162.541 74.3685 162.324 74.9126 162.323H82.375C82.3104 162.139 82.2462 161.951 82.1762 161.763C81.4761 159.826 80.6463 157.938 79.6924 156.113C78.3857 153.578 76.8305 151.178 75.0498 148.95C73.8098 147.397 72.4178 145.973 70.8945 144.697C68.0859 142.378 65.0282 140.945 61.9256 140.945C50.4844 140.945 42.7812 160.447 42.7812 171.889Z" fill="#2F2E41"/>
<path d="M61.5869 129.208L61.5723 128.683C62.548 128.656 63.4082 128.595 64.0546 128.123C64.2378 127.981 64.3884 127.802 64.4962 127.597C64.604 127.392 64.6663 127.166 64.679 126.935C64.6904 126.794 64.669 126.652 64.6166 126.52C64.5642 126.389 64.4821 126.271 64.3767 126.176C63.9476 125.814 63.2572 125.931 62.754 126.162L62.32 126.361L63.1522 120.279L63.6718 120.35L62.964 125.524C63.2537 125.416 63.5658 125.383 63.8717 125.427C64.1776 125.471 64.4676 125.591 64.7153 125.776C64.8819 125.921 65.0126 126.103 65.0973 126.307C65.1819 126.512 65.2181 126.733 65.2031 126.954C65.1878 127.264 65.1048 127.568 64.9598 127.843C64.8148 128.118 64.6115 128.358 64.3639 128.546C63.5334 129.153 62.4541 129.183 61.5869 129.208Z" fill="#2F2E41"/>
<path d="M69.0669 120.797H66.2422V121.321H69.0669V120.797Z" fill="#2F2E41"/>
<path d="M60.1509 120.797H57.3262V121.321H60.1509V120.797Z" fill="#2F2E41"/>
<path d="M50.6808 120.15C51.7723 118.507 53.693 117.81 55.5869 117.641C57.7187 117.45 59.7785 117.861 61.8598 118.261C64.1505 118.7 66.5747 119.111 68.8828 118.556C69.9038 118.319 70.8579 117.855 71.6731 117.196C72.4884 116.537 73.1434 115.702 73.589 114.754C74.434 112.903 74.6161 110.818 74.1046 108.849C73.5016 106.757 72.2772 104.899 70.5938 103.52C67.2721 100.679 62.777 99.4021 58.4535 99.5224C54.1463 99.6336 49.9834 101.097 46.5545 103.706C43.1199 106.409 40.703 110.197 39.6983 114.451C38.6477 118.669 38.99 123.115 40.674 127.123C41.6201 129.318 42.9884 131.296 44.0442 133.436C45.0273 135.428 45.7844 137.744 45.1727 139.966C44.9038 140.957 44.3872 141.864 43.6716 142.6C42.956 143.337 42.0649 143.879 41.0819 144.177C40.1819 144.413 39.2295 144.351 38.368 143.999C37.5065 143.647 36.7825 143.025 36.3048 142.227C35.3159 140.667 35.2923 138.625 36.7771 137.366C37.1515 137.043 37.5875 136.8 38.0588 136.651C38.5301 136.502 39.0268 136.451 39.5186 136.5C40.0104 136.549 40.4871 136.697 40.9197 136.937C41.3523 137.176 41.7317 137.5 42.0349 137.89C42.6373 138.673 42.907 139.661 42.7854 140.641C42.7122 141.136 43.4702 141.35 43.544 140.85C43.7212 139.814 43.5247 138.748 42.9895 137.843C42.4544 136.938 41.6153 136.253 40.6219 135.909C39.6284 135.565 38.5451 135.585 37.5649 135.965C36.5847 136.345 35.7713 137.061 35.2696 137.985C34.3742 139.668 34.8573 141.699 35.994 143.138C36.5804 143.905 37.3753 144.486 38.2835 144.812C39.1917 145.139 40.1748 145.197 41.1151 144.98C43.1841 144.502 44.8767 142.857 45.6727 140.925C46.5588 138.773 46.1528 136.373 45.2889 134.285C44.3551 132.028 42.9684 130.005 41.8718 127.83C40.8789 125.865 40.247 123.737 40.0064 121.549C39.5247 117.154 40.5222 112.724 42.841 108.959C45.2045 105.253 48.812 102.512 53.0154 101.227C57.1884 99.8858 61.6934 100.005 65.7897 101.564C69.7872 103.139 73.6472 106.572 73.6009 111.182C73.5811 113.151 72.85 115.16 71.3416 116.473C69.539 118.043 67.029 118.177 64.7629 117.932C62.4825 117.686 60.2679 117.02 57.9776 116.85C55.9855 116.702 53.8364 116.855 52.0577 117.845C51.2294 118.307 50.5242 118.961 50.0015 119.753C49.7206 120.176 50.4016 120.57 50.6808 120.15Z" fill="#2F2E41"/>
<path d="M52.9142 154.5C52.9366 154.551 52.9618 154.6 52.9897 154.648C53.0178 154.699 53.0487 154.747 53.0821 154.794L59.2199 163.628L59.696 164.314L64.7026 171.516L69.5328 178.469L71.4873 181.286C71.5398 181.363 71.5989 181.435 71.6638 181.501C71.966 181.819 72.3724 182.018 72.809 182.061H72.8593V170.046L72.2993 169.24L66.0187 160.201L59.2732 150.493C58.9954 150.094 58.5706 149.821 58.0919 149.734C57.6132 149.648 57.1197 149.754 56.7195 150.031L54.6502 151.467L53.5385 152.24C53.187 152.485 52.9322 152.845 52.8182 153.257C52.7042 153.67 52.7381 154.11 52.9142 154.5Z" fill="#6C63FF"/>
<path d="M51.9537 154.284L52.2308 154.842L52.2337 154.844L52.3093 154.993L56.809 163.925C57.0627 164.341 57.4705 164.639 57.9433 164.754C58.4162 164.869 58.9155 164.793 59.332 164.541L59.6232 164.359L59.696 164.314L65.4979 160.674C65.705 160.549 65.8851 160.384 66.0281 160.188C66.171 159.993 66.2738 159.771 66.3305 159.536C66.3872 159.3 66.3968 159.056 66.3587 158.817C66.3205 158.578 66.2354 158.349 66.1082 158.143L59.7352 149.502C59.1105 148.655 58.2133 148.049 57.1945 147.786C56.1756 147.523 55.0972 147.618 54.1406 148.057C53.9247 148.154 53.7168 148.268 53.5189 148.398C52.5822 149.017 51.9053 149.959 51.6168 151.044C51.3283 152.129 51.4481 153.282 51.9537 154.284Z" fill="#2F2E41"/>
<path d="M84.998 184.013V205.095C84.9988 205.581 85.1922 206.048 85.5361 206.391C85.8799 206.735 86.346 206.929 86.8322 206.929H90.7048C91.191 206.929 91.6571 206.735 92.0009 206.391C92.3447 206.048 92.5381 205.581 92.5388 205.095V184.013H84.998Z" fill="#6C63FF"/>
<path d="M62.4258 182.761V183.313C62.4262 183.605 62.5273 183.887 62.712 184.113C62.8968 184.338 63.1537 184.493 63.4395 184.551C63.4786 184.556 63.5178 184.565 63.557 184.568C63.599 184.57 63.641 184.573 63.6858 184.573H106.852C107.546 184.573 108.21 184.298 108.701 183.808C109.191 183.318 109.467 182.654 109.468 181.961V164.376C109.467 163.683 109.191 163.018 108.701 162.529C108.21 162.039 107.546 161.764 106.852 161.763H74.9115C74.2188 161.764 73.5547 162.04 73.065 162.529C72.5752 163.019 72.2997 163.683 72.2989 164.376V181.501H63.6858C63.3516 181.501 63.0312 181.634 62.7949 181.871C62.5586 182.107 62.4258 182.427 62.4258 182.761Z" fill="white"/>
<path d="M62.4258 182.761V183.313C62.4262 183.605 62.5273 183.887 62.712 184.113C62.8968 184.338 63.1537 184.493 63.4395 184.551C63.4786 184.556 63.5178 184.565 63.557 184.568C63.599 184.57 63.641 184.573 63.6858 184.573H106.852C107.546 184.573 108.21 184.298 108.701 183.808C109.191 183.318 109.467 182.654 109.468 181.961V164.376C109.467 163.683 109.191 163.018 108.701 162.529C108.21 162.039 107.546 161.764 106.852 161.763H74.9115C74.2188 161.764 73.5547 162.04 73.065 162.529C72.5752 163.019 72.2997 163.683 72.2989 164.376V181.501H63.6858C63.3516 181.501 63.0312 181.634 62.7949 181.871C62.5586 182.107 62.4258 182.427 62.4258 182.761ZM62.9858 183.313V182.761C62.9859 182.576 63.0597 182.398 63.1909 182.267C63.3222 182.135 63.5002 182.062 63.6858 182.061H72.8589V164.376C72.8597 163.832 73.0762 163.31 73.461 162.925C73.8457 162.541 74.3673 162.324 74.9115 162.323H106.852C107.397 162.324 107.919 162.54 108.305 162.925C108.69 163.309 108.907 163.831 108.908 164.376V181.961C108.907 182.505 108.69 183.027 108.305 183.412C107.919 183.797 107.397 184.013 106.852 184.013H63.6858C63.5002 184.013 63.3222 183.939 63.1909 183.808C63.0596 183.677 62.9859 183.499 62.9858 183.313Z" fill="#3F3D56"/>
<path d="M90.8838 175.322C92.0731 175.322 93.0371 174.358 93.0371 173.169C93.0371 171.979 92.0731 171.015 90.8838 171.015C89.6945 171.015 88.7305 171.979 88.7305 173.169C88.7305 174.358 89.6945 175.322 90.8838 175.322Z" fill="#6C63FF"/>
<path d="M72.8686 181.798H72.3086V184.318H72.8686V181.798Z" fill="#3F3D56"/>
<path d="M300.154 11.934H151.148C151.056 11.934 150.968 11.8976 150.904 11.833C150.839 11.7683 150.803 11.6805 150.803 11.5891C150.803 11.4976 150.839 11.4099 150.904 11.3452C150.968 11.2805 151.056 11.2441 151.148 11.2441H300.154C300.246 11.2441 300.334 11.2805 300.398 11.3452C300.463 11.4099 300.499 11.4976 300.499 11.5891C300.499 11.6805 300.463 11.7683 300.398 11.833C300.334 11.8976 300.246 11.934 300.154 11.934Z" fill="#CACACA"/>
<path d="M164.25 7.10519C165.973 7.10519 167.369 5.70865 167.369 3.98594C167.369 2.26323 165.973 0.866699 164.25 0.866699C162.527 0.866699 161.131 2.26323 161.131 3.98594C161.131 5.70865 162.527 7.10519 164.25 7.10519Z" fill="#3F3D56"/>
<path d="M175.025 7.10519C176.748 7.10519 178.145 5.70865 178.145 3.98594C178.145 2.26323 176.748 0.866699 175.025 0.866699C173.303 0.866699 171.906 2.26323 171.906 3.98594C171.906 5.70865 173.303 7.10519 175.025 7.10519Z" fill="#3F3D56"/>
<path d="M185.801 7.10519C187.524 7.10519 188.92 5.70865 188.92 3.98594C188.92 2.26323 187.524 0.866699 185.801 0.866699C184.078 0.866699 182.682 2.26323 182.682 3.98594C182.682 5.70865 184.078 7.10519 185.801 7.10519Z" fill="#3F3D56"/>
<path d="M179.548 65.1151C175.923 65.1151 172.38 64.0402 169.366 62.0264C166.352 60.0126 164.003 57.1503 162.616 53.8014C161.229 50.4525 160.866 46.7675 161.573 43.2124C162.28 39.6572 164.025 36.3916 166.589 33.8285C169.152 31.2653 172.417 29.5198 175.972 28.8126C179.528 28.1054 183.213 28.4684 186.561 29.8555C189.91 31.2426 192.773 33.5917 194.787 36.6056C196.8 39.6195 197.875 43.1629 197.875 46.7877C197.87 51.6467 195.937 56.3052 192.501 59.741C189.066 63.1769 184.407 65.1096 179.548 65.1151ZM179.548 29.1503C176.06 29.1503 172.65 30.1847 169.749 32.1227C166.849 34.0608 164.588 36.8153 163.253 40.0382C161.918 43.261 161.569 46.8073 162.249 50.2287C162.93 53.65 164.61 56.7927 167.076 59.2593C169.543 61.726 172.686 63.4058 176.107 64.0864C179.528 64.7669 183.075 64.4176 186.298 63.0827C189.52 61.7477 192.275 59.4871 194.213 56.5866C196.151 53.6861 197.185 50.2761 197.185 46.7877C197.18 42.1116 195.32 37.6286 192.014 34.3221C188.707 31.0156 184.224 29.1556 179.548 29.1503Z" fill="#CACACA"/>
<path d="M178.527 157.005C183.234 157.005 187.05 153.19 187.05 148.483C187.05 143.776 183.234 139.96 178.527 139.96C173.82 139.96 170.004 143.776 170.004 148.483C170.004 153.19 173.82 157.005 178.527 157.005Z" fill="#E4E4E4"/>
<path d="M173.792 151.641L173.783 151.323C174.376 151.306 174.898 151.269 175.291 150.982C175.402 150.897 175.493 150.788 175.559 150.663C175.624 150.539 175.662 150.402 175.67 150.261C175.677 150.176 175.664 150.089 175.632 150.009C175.6 149.929 175.55 149.858 175.486 149.8C175.338 149.71 175.168 149.662 174.995 149.661C174.821 149.659 174.651 149.704 174.501 149.792L174.237 149.912L174.743 146.219L175.058 146.263L174.628 149.404C174.804 149.339 174.994 149.319 175.18 149.345C175.365 149.372 175.541 149.445 175.692 149.557C175.793 149.645 175.872 149.756 175.924 149.88C175.975 150.004 175.997 150.139 175.988 150.273C175.979 150.461 175.928 150.645 175.84 150.813C175.752 150.98 175.629 151.125 175.478 151.24C174.974 151.608 174.319 151.627 173.792 151.641Z" fill="#2F2E41"/>
<path d="M178.334 146.534H176.619V146.852H178.334V146.534Z" fill="#2F2E41"/>
<path d="M172.918 146.534H171.203V146.852H172.918V146.534Z" fill="#2F2E41"/>
<path d="M177.244 142.979C175.188 144.39 172.03 143.612 171.098 141.227C170.87 140.647 170.769 140.026 170.8 139.403C170.832 138.781 170.995 138.172 171.279 137.618C171.62 137.037 172.084 136.538 172.638 136.156C173.192 135.774 173.824 135.518 174.488 135.407C176.251 135.041 178.074 135.532 179.686 136.245C179.744 136.275 179.81 136.287 179.875 136.278C179.94 136.27 180.001 136.242 180.049 136.198C181.589 134.97 183.825 135.503 185.404 136.361C187.111 137.32 188.555 138.686 189.607 140.337C190.679 141.974 191.35 143.842 191.563 145.788C191.758 147.891 191.414 150.009 190.565 151.942C189.715 153.876 188.388 155.561 186.707 156.84C186.401 157.068 186.7 157.589 187.01 157.358C188.707 156.104 190.069 154.451 190.976 152.546C191.883 150.64 192.307 148.541 192.211 146.433C192.114 144.325 191.5 142.273 190.422 140.459C189.345 138.644 187.837 137.123 186.032 136.029C184.139 134.891 181.5 134.279 179.625 135.774L179.988 135.727C178.376 135.014 176.61 134.511 174.834 134.744C173.325 134.943 171.842 135.666 170.977 136.955C170.597 137.547 170.347 138.213 170.245 138.908C170.144 139.604 170.191 140.313 170.386 140.989C170.576 141.657 170.918 142.271 171.386 142.784C171.853 143.297 172.434 143.695 173.081 143.945C173.807 144.235 174.592 144.345 175.369 144.267C176.147 144.189 176.894 143.925 177.547 143.497C177.863 143.279 177.564 142.759 177.244 142.979Z" fill="#2F2E41"/>
<path d="M179.122 57.9574C183.768 57.9574 187.535 54.1908 187.535 49.5445C187.535 44.8982 183.768 41.1316 179.122 41.1316C174.476 41.1316 170.709 44.8982 170.709 49.5445C170.709 54.1908 174.476 57.9574 179.122 57.9574Z" fill="#E4E4E4"/>
<path d="M177.136 53.076C176.591 53.0608 175.912 53.0419 175.389 52.66C175.234 52.5416 175.106 52.3906 175.015 52.2175C174.923 52.0445 174.871 51.8536 174.861 51.6582C174.852 51.5194 174.875 51.3802 174.928 51.2516C174.981 51.1231 175.064 51.0085 175.168 50.917C175.324 50.8007 175.507 50.7253 175.699 50.6976C175.891 50.6699 176.088 50.6908 176.27 50.7584L175.825 47.5045L176.152 47.4597L176.675 51.2851L176.402 51.1599C176.247 51.0695 176.07 51.0226 175.89 51.0242C175.711 51.0258 175.535 51.0758 175.381 51.169C175.315 51.2286 175.263 51.3027 175.23 51.3856C175.197 51.4684 175.184 51.5577 175.191 51.6466C175.199 51.792 175.238 51.934 175.306 52.0629C175.374 52.1918 175.469 52.3045 175.584 52.3935C175.991 52.6907 176.532 52.7291 177.145 52.7462L177.136 53.076Z" fill="#2F2E41"/>
<path d="M174.209 47.7852H172.432V48.1151H174.209V47.7852Z" fill="#2F2E41"/>
<path d="M179.818 47.7852H178.041V48.1151H179.818V47.7852Z" fill="#2F2E41"/>
<path d="M179.902 43.3256C178.88 44.6623 177.258 45.559 175.543 45.3467C174.747 45.265 173.997 44.9337 173.401 44.4002C172.805 43.8667 172.393 43.1584 172.224 42.3765C172.077 41.606 172.116 40.8113 172.34 40.0595C172.564 39.3076 172.965 38.6205 173.51 38.0562C174.666 36.8404 176.321 36.1863 177.958 35.9621C179.506 35.7799 181.076 35.9268 182.564 36.393C184.051 36.8593 185.424 37.6345 186.591 38.6678C187.769 39.6809 188.709 40.9411 189.345 42.3588C189.957 43.7659 190.249 45.2917 190.198 46.8255C190.158 48.351 189.808 49.8523 189.171 51.2388C188.533 52.6253 187.621 53.8682 186.49 54.8921C186.205 55.141 185.907 55.3742 185.598 55.5909C185.336 55.7741 185.089 55.3453 185.348 55.1635C186.501 54.3214 187.472 53.2552 188.203 52.0287C188.933 50.8022 189.409 49.4408 189.601 48.026C189.816 46.6083 189.72 45.1607 189.32 43.7837C188.92 42.4068 188.225 41.1334 187.283 40.0519C186.332 38.9679 185.175 38.0841 183.879 37.4524C182.583 36.8206 181.174 36.4535 179.734 36.3724C176.839 36.2462 173.221 37.5386 172.68 40.761C172.437 42.2054 172.977 43.7236 174.3 44.4467C175.001 44.7993 175.791 44.9357 176.569 44.8388C177.348 44.7419 178.08 44.416 178.673 43.9024C178.971 43.6585 179.24 43.3812 179.475 43.0758C179.666 42.8262 180.096 43.0724 179.902 43.3256Z" fill="#2F2E41"/>
<path d="M179.548 113.461C175.923 113.461 172.38 112.386 169.366 110.373C166.352 108.359 164.003 105.496 162.616 102.148C161.229 98.7987 160.866 95.1137 161.573 91.5586C162.28 88.0034 164.025 84.7378 166.589 82.1747C169.152 79.6115 172.417 77.866 175.972 77.1588C179.528 76.4516 183.213 76.8146 186.561 78.2017C189.91 79.5888 192.773 81.9379 194.787 84.9518C196.8 87.9657 197.875 91.5091 197.875 95.1339C197.87 99.9929 195.937 104.651 192.501 108.087C189.066 111.523 184.407 113.456 179.548 113.461ZM179.548 77.4965C176.06 77.4965 172.65 78.5309 169.749 80.4689C166.849 82.4069 164.588 85.1615 163.253 88.3844C161.918 91.6072 161.569 95.1535 162.249 98.5748C162.93 101.996 164.61 105.139 167.076 107.606C169.543 110.072 172.686 111.752 176.107 112.433C179.528 113.113 183.075 112.764 186.298 111.429C189.52 110.094 192.275 107.833 194.213 104.933C196.151 102.032 197.185 98.6222 197.185 95.1339C197.18 90.4578 195.32 85.9747 192.014 82.6682C188.707 79.3617 184.224 77.5018 179.548 77.4965Z" fill="#CACACA"/>
<path d="M179.548 165.05C175.923 165.05 172.38 163.975 169.366 161.961C166.352 159.948 164.003 157.085 162.616 153.736C161.229 150.387 160.866 146.702 161.573 143.147C162.28 139.592 164.026 136.326 166.589 133.763C169.152 131.2 172.417 129.455 175.973 128.748C179.528 128.04 183.213 128.403 186.562 129.79C189.91 131.178 192.773 133.527 194.787 136.541C196.8 139.555 197.875 143.098 197.875 146.723C197.87 151.582 195.937 156.24 192.501 159.676C189.066 163.112 184.407 165.045 179.548 165.05ZM179.548 129.085C176.06 129.085 172.65 130.12 169.749 132.058C166.849 133.996 164.588 136.75 163.253 139.973C161.918 143.196 161.569 146.742 162.249 150.164C162.93 153.585 164.61 156.728 167.076 159.194C169.543 161.661 172.686 163.341 176.107 164.021C179.528 164.702 183.075 164.353 186.298 163.018C189.52 161.683 192.275 159.422 194.213 156.522C196.151 153.621 197.185 150.211 197.185 146.723C197.18 142.047 195.32 137.564 192.014 134.257C188.707 130.951 184.224 129.091 179.548 129.085Z" fill="#CACACA"/>
<path d="M178.299 105.589C183.106 105.589 187.003 101.692 187.003 96.8854C187.003 92.0784 183.106 88.1816 178.299 88.1816C173.492 88.1816 169.596 92.0784 169.596 96.8854C169.596 101.692 173.492 105.589 178.299 105.589Z" fill="#E4E4E4"/>
<path d="M175.402 100.539C174.838 100.523 174.136 100.504 173.595 100.109C173.434 99.986 173.302 99.8298 173.207 99.6508C173.113 99.4717 173.059 99.2743 173.049 99.0721C173.039 98.9285 173.063 98.7845 173.118 98.6515C173.173 98.5185 173.258 98.4 173.367 98.3053C173.528 98.185 173.716 98.107 173.916 98.0783C174.115 98.0497 174.318 98.0713 174.506 98.1412L174.046 94.7749L174.384 94.7285L174.925 98.6862L174.643 98.5566C174.482 98.463 174.299 98.4145 174.114 98.4162C173.928 98.4179 173.746 98.4696 173.587 98.566C173.518 98.6277 173.465 98.7044 173.431 98.7901C173.397 98.8758 173.383 98.9682 173.39 99.0601C173.398 99.2106 173.439 99.3575 173.509 99.4908C173.579 99.6241 173.677 99.7408 173.797 99.8329C174.217 100.14 174.777 100.18 175.412 100.198L175.402 100.539Z" fill="#2F2E41"/>
<path d="M172.373 95.0652H170.535V95.4065H172.373V95.0652Z" fill="#2F2E41"/>
<path d="M178.176 95.0652H176.338V95.4065H178.176V95.0652Z" fill="#2F2E41"/>
<path d="M178.737 105.861L184.757 103.524C185.742 103.142 186.732 102.772 187.711 102.376C188.13 102.23 188.517 102.002 188.848 101.706C189.136 101.401 189.332 101.021 189.414 100.609C189.578 99.7032 189.631 98.7803 189.571 97.8613C189.559 96.8761 189.478 95.8929 189.328 94.919C189.065 93.089 188.448 91.3279 187.51 89.7343C185.822 86.9642 182.913 84.88 179.567 85.0464C177.995 85.101 176.49 85.6989 175.309 86.7383C175.189 86.8818 175.055 87.0123 174.908 87.1278C174.805 87.1662 174.694 87.1737 174.587 87.1493C174.447 87.1403 174.306 87.1334 174.166 87.1286C173.678 87.108 173.189 87.1285 172.704 87.1899C171.821 87.2854 170.984 87.633 170.292 88.1913C169.99 88.4318 169.738 88.7295 169.551 89.0674C169.364 89.4053 169.245 89.7768 169.201 90.1607C169.178 90.517 169.237 90.8739 169.373 91.2038C169.51 91.5338 169.72 91.8279 169.989 92.0636C170.707 92.669 171.732 92.4562 172.593 92.4106L175.749 92.2434L177.348 92.1586C177.678 92.1412 177.677 92.6532 177.348 92.6706L173.098 92.8958C172.41 92.9623 171.719 92.9903 171.028 92.9797C170.502 92.9559 170.001 92.7542 169.605 92.4076C169.244 92.0759 168.975 91.6563 168.825 91.1896C168.674 90.723 168.647 90.2253 168.746 89.7451C168.877 89.2289 169.115 88.7459 169.444 88.3274C169.774 87.909 170.187 87.5643 170.658 87.3157C171.902 86.6143 173.387 86.5471 174.778 86.6508L174.597 86.7258C176.171 85.0365 178.582 84.3233 180.845 84.5729C183.235 84.8364 185.36 86.1696 186.887 87.9925C188.59 90.025 189.518 92.5594 189.878 95.1654C190.066 96.5724 190.128 97.9934 190.063 99.4114C190.066 100.037 189.959 100.658 189.747 101.246C189.505 101.819 189.068 102.287 188.514 102.568C187.878 102.875 187.225 103.144 186.557 103.372L184.339 104.233L179.982 105.924L178.873 106.354C178.566 106.474 178.433 105.979 178.737 105.861Z" fill="#2F2E41"/>
<path d="M185.559 85.8169C185.559 85.2937 185.714 84.7823 186.004 84.3473C186.295 83.9123 186.708 83.5732 187.192 83.373C187.675 83.1728 188.207 83.1204 188.72 83.2225C189.233 83.3245 189.704 83.5765 190.074 83.9464C190.444 84.3164 190.696 84.7877 190.798 85.3008C190.9 85.8139 190.848 86.3458 190.648 86.8292C190.448 87.3125 190.108 87.7257 189.673 88.0163C189.238 88.307 188.727 88.4621 188.204 88.4621C187.503 88.4613 186.83 88.1824 186.334 87.6865C185.838 87.1906 185.559 86.5182 185.559 85.8169ZM186.071 85.8169C186.071 86.2388 186.196 86.6513 186.43 87.0021C186.665 87.3529 186.998 87.6263 187.387 87.7878C187.777 87.9492 188.206 87.9915 188.62 87.9092C189.034 87.8268 189.414 87.6237 189.712 87.3253C190.011 87.027 190.214 86.6469 190.296 86.2331C190.378 85.8192 190.336 85.3903 190.175 85.0005C190.013 84.6107 189.74 84.2775 189.389 84.0431C189.038 83.8087 188.626 83.6836 188.204 83.6836C187.638 83.6843 187.096 83.9092 186.696 84.3091C186.296 84.7091 186.071 85.2513 186.071 85.8169Z" fill="#2F2E41"/>
<path d="M286.902 54.4805H226.669C225.917 54.4805 225.195 54.1816 224.663 53.6495C224.131 53.1175 223.832 52.3959 223.832 51.6434C223.832 50.891 224.131 50.1694 224.663 49.6373C225.195 49.1053 225.917 48.8064 226.669 48.8064H286.902C287.274 48.8064 287.643 48.8798 287.988 49.0224C288.332 49.1649 288.645 49.3739 288.908 49.6373C289.171 49.9008 289.38 50.2135 289.523 50.5577C289.666 50.902 289.739 51.2709 289.739 51.6434C289.739 52.016 289.666 52.3849 289.523 52.7291C289.38 53.0733 289.171 53.3861 288.908 53.6495C288.645 53.913 288.332 54.122 287.988 54.2645C287.643 54.4071 287.274 54.4805 286.902 54.4805Z" fill="#E4E4E4"/>
<path d="M267.479 44.7691H226.669C225.917 44.7691 225.195 44.4702 224.663 43.9381C224.131 43.4061 223.832 42.6845 223.832 41.932C223.832 41.1796 224.131 40.458 224.663 39.9259C225.195 39.3939 225.917 39.095 226.669 39.095H267.479C267.852 39.095 268.22 39.1684 268.565 39.3109C268.909 39.4535 269.222 39.6625 269.485 39.9259C269.749 40.1894 269.958 40.5021 270.1 40.8463C270.243 41.1905 270.316 41.5595 270.316 41.932C270.316 42.3046 270.243 42.6735 270.1 43.0177C269.958 43.3619 269.749 43.6747 269.485 43.9381C269.222 44.2016 268.909 44.4105 268.565 44.5531C268.22 44.6957 267.852 44.7691 267.479 44.7691Z" fill="#E4E4E4"/>
<path d="M286.902 102.827H226.669C225.917 102.827 225.195 102.528 224.663 101.996C224.131 101.464 223.832 100.742 223.832 99.9896C223.832 99.2372 224.131 98.5156 224.663 97.9835C225.195 97.4515 225.917 97.1526 226.669 97.1526H286.902C287.654 97.1526 288.376 97.4515 288.908 97.9835C289.44 98.5156 289.739 99.2372 289.739 99.9896C289.739 100.742 289.44 101.464 288.908 101.996C288.376 102.528 287.654 102.827 286.902 102.827Z" fill="#E4E4E4"/>
<path d="M267.478 93.1153H226.668C225.916 93.1144 225.195 92.8152 224.664 92.2832C224.132 91.7512 223.834 91.0301 223.834 90.2782C223.834 89.5263 224.132 88.8052 224.664 88.2732C225.195 87.7413 225.916 87.442 226.668 87.4412H267.478C268.23 87.4412 268.952 87.7401 269.484 88.2721C270.016 88.8042 270.315 89.5258 270.315 90.2782C270.315 91.0307 270.016 91.7523 269.484 92.2843C268.952 92.8164 268.23 93.1153 267.478 93.1153Z" fill="#E4E4E4"/>
<path d="M286.902 154.415H226.669C225.917 154.415 225.195 154.117 224.663 153.584C224.131 153.052 223.832 152.331 223.832 151.578C223.832 150.826 224.131 150.104 224.663 149.572C225.195 149.04 225.917 148.741 226.669 148.741H286.902C287.654 148.741 288.376 149.04 288.908 149.572C289.44 150.104 289.739 150.826 289.739 151.578C289.739 152.331 289.44 153.052 288.908 153.584C288.376 154.117 287.654 154.415 286.902 154.415Z" fill="#E4E4E4"/>
<path d="M267.479 144.704H226.669C225.917 144.704 225.195 144.405 224.663 143.873C224.131 143.341 223.832 142.619 223.832 141.867C223.832 141.115 224.131 140.393 224.663 139.861C225.195 139.329 225.917 139.03 226.669 139.03H267.479C268.231 139.03 268.953 139.329 269.485 139.861C270.017 140.393 270.316 141.115 270.316 141.867C270.316 142.619 270.017 143.341 269.485 143.873C268.953 144.405 268.231 144.704 267.479 144.704Z" fill="#E4E4E4"/>
<path d="M132.26 217.133H0.844923C0.753444 217.133 0.665711 217.097 0.601025 217.032C0.53634 216.968 0.5 216.88 0.5 216.788C0.5 216.697 0.53634 216.609 0.601025 216.545C0.665711 216.48 0.753444 216.443 0.844923 216.443H132.26C132.352 216.443 132.44 216.48 132.504 216.545C132.569 216.609 132.605 216.697 132.605 216.788C132.605 216.88 132.569 216.968 132.504 217.032C132.44 217.097 132.352 217.133 132.26 217.133Z" fill="#3F3D56"/>
</g>
<defs>
<clipPath id="clip0_4673_25288">
<rect width="300" height="216.267" fill="white" transform="translate(0.5 0.866699)"/>
</clipPath>
</defs>
</svg>
