<svg width="20" height="20" viewBox="0 0 20 20" fill="none" xmlns="http://www.w3.org/2000/svg">
<path d="M8.32507 18.9833C7.82507 18.9833 7.35008 18.7333 7.02508 18.2917L6.02509 16.9583C6.02509 16.9667 5.98342 16.9417 5.96675 16.9417H5.65842C2.80842 16.9417 1.04175 16.1667 1.04175 12.325V8.99167C1.04175 5.48334 3.18342 4.56667 4.98342 4.40834C5.18342 4.38334 5.41676 4.375 5.65842 4.375H10.9917C14.0084 4.375 15.6084 5.97501 15.6084 8.99167V12.325C15.6084 12.5667 15.6001 12.8 15.5667 13.025C15.4167 14.8 14.5001 16.9417 10.9917 16.9417H10.6584L9.62507 18.2917C9.30007 18.7333 8.82507 18.9833 8.32507 18.9833ZM5.65842 5.625C5.46676 5.625 5.28342 5.63333 5.10842 5.65C3.17509 5.81667 2.29175 6.87501 2.29175 8.99167V12.325C2.29175 15.1833 3.17509 15.6917 5.65842 15.6917H5.99175C6.36675 15.6917 6.79174 15.9 7.02508 16.2L8.02509 17.5417C8.20842 17.7917 8.44175 17.7917 8.62509 17.5417L9.62507 16.2083C9.86674 15.8833 10.2501 15.6917 10.6584 15.6917H10.9917C13.1084 15.6917 14.1667 14.8 14.3251 12.9C14.3501 12.7 14.3584 12.5167 14.3584 12.325V8.99167C14.3584 6.66667 13.3167 5.625 10.9917 5.625H5.65842V5.625Z" fill="#707791"/>
<path d="M8.32528 11.8249C7.85861 11.8249 7.49194 11.4499 7.49194 10.9915C7.49194 10.5332 7.86694 10.1582 8.32528 10.1582C8.78361 10.1582 9.15861 10.5332 9.15861 10.9915C9.15861 11.4499 8.79194 11.8249 8.32528 11.8249Z" fill="#707791"/>
<path d="M10.9915 11.8249C10.5249 11.8249 10.1582 11.4499 10.1582 10.9915C10.1582 10.5332 10.5332 10.1582 10.9915 10.1582C11.4499 10.1582 11.8249 10.5332 11.8249 10.9915C11.8249 11.4499 11.4499 11.8249 10.9915 11.8249Z" fill="#707791"/>
<path d="M5.66659 11.8249C5.19992 11.8249 4.83325 11.4499 4.83325 10.9915C4.83325 10.5332 5.20825 10.1582 5.66659 10.1582C6.12492 10.1582 6.49992 10.5332 6.49992 10.9915C6.49992 11.4499 6.12492 11.8249 5.66659 11.8249Z" fill="#707791"/>
<path d="M14.9502 13.5753C14.7835 13.5753 14.6169 13.5087 14.5002 13.3837C14.3669 13.2503 14.3085 13.0587 14.3335 12.8753C14.3585 12.7003 14.3669 12.517 14.3669 12.3253V8.992C14.3669 6.667 13.3252 5.62533 11.0002 5.62533H5.66685C5.47518 5.62533 5.29187 5.63366 5.11687 5.65032C4.93354 5.67532 4.74186 5.60865 4.60852 5.48365C4.47519 5.35031 4.40018 5.167 4.41685 4.98367C4.56685 3.18367 5.49185 1.04199 9.00018 1.04199H14.3335C17.3502 1.04199 18.9502 2.642 18.9502 5.65867V8.992C18.9502 12.5003 16.8085 13.417 15.0085 13.5753C14.9835 13.5753 14.9669 13.5753 14.9502 13.5753ZM5.76687 4.37533H10.9919C14.0085 4.37533 15.6085 5.97533 15.6085 8.992V12.217C17.0252 11.867 17.6919 10.8253 17.6919 8.992V5.65867C17.6919 3.33367 16.6502 2.29199 14.3252 2.29199H8.99187C7.15853 2.29199 6.1252 2.95866 5.76687 4.37533Z" fill="#707791"/>
</svg>
