<svg width="20" height="20" viewBox="0 0 20 20" fill="none" xmlns="http://www.w3.org/2000/svg">
<path d="M19.1666 18.958H0.833252C0.491585 18.958 0.208252 18.6747 0.208252 18.333C0.208252 17.9913 0.491585 17.708 0.833252 17.708H19.1666C19.5083 17.708 19.7916 17.9913 19.7916 18.333C19.7916 18.6747 19.5083 18.958 19.1666 18.958Z" fill="#707791"/>
<path d="M16.4836 18.9667C16.142 18.9667 15.8586 18.6834 15.8586 18.3417V14.625C15.8586 14.2833 16.142 14 16.4836 14C16.8253 14 17.1086 14.2833 17.1086 14.625V18.3417C17.1086 18.6834 16.8336 18.9667 16.4836 18.9667Z" fill="#707791"/>
<path d="M16.5001 15.2497C15.1418 15.2497 14.0417 14.1497 14.0417 12.7914V10.8997C14.0417 9.54142 15.1418 8.44141 16.5001 8.44141C17.8584 8.44141 18.9584 9.54142 18.9584 10.8997V12.7914C18.9584 14.1497 17.8584 15.2497 16.5001 15.2497ZM16.5001 9.69975C15.8334 9.69975 15.2917 10.2414 15.2917 10.9081V12.7997C15.2917 13.4664 15.8334 14.0081 16.5001 14.0081C17.1668 14.0081 17.7084 13.4664 17.7084 12.7997V10.9081C17.7084 10.2414 17.1668 9.69975 16.5001 9.69975Z" fill="#707791"/>
<path d="M11.9164 18.9588C11.5748 18.9588 11.2914 18.6754 11.2914 18.3338V5.02547C11.2914 3.70047 10.7331 3.13379 9.43311 3.13379H4.24146C2.93312 3.13379 2.36646 3.70047 2.36646 5.02547V18.3338C2.36646 18.6754 2.08312 18.9588 1.74146 18.9588C1.39979 18.9588 1.11646 18.6754 1.11646 18.3338V5.02547C1.11646 3.00047 2.22479 1.88379 4.24146 1.88379H9.43311C11.4414 1.88379 12.5414 3.00047 12.5414 5.02547V18.3338C12.5414 18.6754 12.2581 18.9588 11.9164 18.9588Z" fill="#707791"/>
<path d="M8.95826 7.5H4.83325C4.49159 7.5 4.20825 7.21667 4.20825 6.875C4.20825 6.53333 4.49159 6.25 4.83325 6.25H8.95826C9.29993 6.25 9.58326 6.53333 9.58326 6.875C9.58326 7.21667 9.29993 7.5 8.95826 7.5Z" fill="#707791"/>
<path d="M8.95826 10.625H4.83325C4.49159 10.625 4.20825 10.3417 4.20825 10C4.20825 9.65833 4.49159 9.375 4.83325 9.375H8.95826C9.29993 9.375 9.58326 9.65833 9.58326 10C9.58326 10.3417 9.29993 10.625 8.95826 10.625Z" fill="#707791"/>
<path d="M6.875 18.958C6.53333 18.958 6.25 18.6747 6.25 18.333V15.208C6.25 14.8663 6.53333 14.583 6.875 14.583C7.21667 14.583 7.5 14.8663 7.5 15.208V18.333C7.5 18.6747 7.21667 18.958 6.875 18.958Z" fill="#707791"/>
</svg>
