<svg xmlns="http://www.w3.org/2000/svg" width="20" height="21" viewBox="0 0 20 21" fill="none">
  <path
    d="M4.16699 8.83341H5.83366C7.50033 8.83341 8.33366 8.00008 8.33366 6.33341V4.66675C8.33366 3.00008 7.50033 2.16675 5.83366 2.16675H4.16699C2.50033 2.16675 1.66699 3.00008 1.66699 4.66675V6.33341C1.66699 8.00008 2.50033 8.83341 4.16699 8.83341Z"
    stroke="#4D65B4" stroke-width="1.5" stroke-miterlimit="10" stroke-linecap="round" stroke-linejoin="round" />
  <path
    d="M14.167 8.83341H15.8337C17.5003 8.83341 18.3337 8.00008 18.3337 6.33341V4.66675C18.3337 3.00008 17.5003 2.16675 15.8337 2.16675H14.167C12.5003 2.16675 11.667 3.00008 11.667 4.66675V6.33341C11.667 8.00008 12.5003 8.83341 14.167 8.83341Z"
    stroke="#4D65B4" stroke-width="1.5" stroke-miterlimit="10" stroke-linecap="round" stroke-linejoin="round" />
  <path
    d="M14.167 18.8334H15.8337C17.5003 18.8334 18.3337 18.0001 18.3337 16.3334V14.6667C18.3337 13.0001 17.5003 12.1667 15.8337 12.1667H14.167C12.5003 12.1667 11.667 13.0001 11.667 14.6667V16.3334C11.667 18.0001 12.5003 18.8334 14.167 18.8334Z"
    stroke="#4D65B4" stroke-width="1.5" stroke-miterlimit="10" stroke-linecap="round" stroke-linejoin="round" />
  <path
    d="M4.16699 18.8334H5.83366C7.50033 18.8334 8.33366 18.0001 8.33366 16.3334V14.6667C8.33366 13.0001 7.50033 12.1667 5.83366 12.1667H4.16699C2.50033 12.1667 1.66699 13.0001 1.66699 14.6667V16.3334C1.66699 18.0001 2.50033 18.8334 4.16699 18.8334Z"
    stroke="#4D65B4" stroke-width="1.5" stroke-miterlimit="10" stroke-linecap="round" stroke-linejoin="round" />
</svg>